<?xml version="1.0" encoding="iso-8859-1"?>
<!-- Generator: Adobe Illustrator 19.0.0, SVG Export Plug-In . SVG Version: 6.00 Build 0)  -->
<svg version="1.1" id="Layer_1" xmlns="http://www.w3.org/2000/svg" xmlns:xlink="http://www.w3.org/1999/xlink" x="0px" y="0px"
	 viewBox="0 0 512 512" style="enable-background:new 0 0 512 512;" xml:space="preserve">
<g>
	<g>
		<path d="M462.375,456.559V304.765h-53.717V182.462h-45.235v-81.826h-16.042v-2.83c1.903-0.774,3.828-1.759,5.758-2.965
			c7.066-4.412,11.597-10.754,13.103-18.341c2.981-15.008-6.304-30.867-12.103-38.984c-4.444-6.219-9.429-11.538-14.573-16.889
			L326.623,7.166l-0.146,18.672c-0.06,7.656-2.881,12.961-6.787,20.306l-0.491,0.924c-4.223,7.953-6.334,15.287-6.456,22.422
			c-0.208,12.144,5.729,22.113,15.883,26.669l0.147,0.066c1.096,0.492,2.237,0.98,3.398,1.431v2.982h-16.043v81.826h-36.481v-81.826
			h-16.043v-2.831c1.903-0.774,3.827-1.759,5.758-2.965c7.066-4.412,11.596-10.754,13.103-18.341
			c2.981-15.008-6.304-30.867-12.103-38.984c-4.444-6.219-9.429-11.538-14.573-16.889L242.847,7.166l-0.146,18.672
			c-0.06,7.655-2.881,12.96-6.786,20.304l-0.492,0.926c-4.223,7.955-6.334,15.288-6.456,22.422
			c-0.208,12.144,5.73,22.113,15.883,26.668l0.148,0.067c1.096,0.492,2.236,0.98,3.397,1.431v2.982h-16.043v81.826h-36.482v-81.826
			h-16.042v-2.831c1.903-0.774,3.827-1.759,5.758-2.965c7.066-4.412,11.597-10.754,13.103-18.341
			c2.981-15.008-6.303-30.866-12.104-38.984c-4.446-6.221-9.43-11.539-14.573-16.889l-12.939-13.46l-0.147,18.671
			c-0.06,7.656-2.881,12.962-6.788,20.307l-0.491,0.924c-4.222,7.955-6.334,15.288-6.456,22.422
			c-0.208,12.144,5.73,22.113,15.883,26.668l0.147,0.066c1.096,0.492,2.237,0.981,3.398,1.432v2.982h-16.043v81.826h-45.233v122.303
			H49.625V456.56H0v52.224h512v-52.225H462.375z M327.949,69.749c0.08-4.68,1.611-9.767,4.683-15.552l0.486-0.914
			c1.963-3.69,3.876-7.289,5.395-11.169c1.128,1.385,2.215,2.795,3.25,4.243c7.33,10.258,10.904,20.418,9.562,27.18
			c-0.529,2.664-1.805,4.844-3.945,6.713v-9.915h-15.208v10.242C328.318,77.272,327.908,72.102,327.949,69.749z M331.336,115.844
			h16.878v66.618h-16.878V115.844z M244.173,69.749c0.08-4.679,1.612-9.766,4.683-15.552l0.487-0.914
			c1.963-3.69,3.876-7.288,5.395-11.168c1.128,1.385,2.215,2.795,3.25,4.244c7.329,10.258,10.904,20.418,9.562,27.18
			c-0.529,2.665-1.805,4.844-3.945,6.713v-9.915h-15.208v10.242C244.542,77.272,244.133,72.102,244.173,69.749z M247.561,115.844
			h16.878v66.618h-16.878V115.844z M160.398,69.749c0.08-4.679,1.612-9.766,4.683-15.552l0.486-0.914
			c1.963-3.69,3.876-7.289,5.396-11.169c1.128,1.385,2.215,2.795,3.249,4.244c7.33,10.258,10.904,20.419,9.562,27.18
			c-0.529,2.664-1.805,4.843-3.944,6.713v-9.915h-15.208v10.242C160.767,77.272,160.357,72.102,160.398,69.749z M163.785,115.844
			h16.878v66.618h-16.878V115.844z M118.55,197.67h0.001h30.028h47.294h36.482h47.294h36.481h47.294h30.028v41.732
			c-4.431-3.305-10.098-5.927-18.198-5.927c-13.133,0-19.883,6.886-25.307,12.419c-4.638,4.732-7.702,7.858-14.448,7.858
			s-9.809-3.126-14.448-7.858c-5.424-5.534-12.174-12.419-25.307-12.419s-19.883,6.886-25.307,12.42
			c-4.638,4.732-7.702,7.857-14.446,7.857c-6.744,0-9.808-3.126-14.447-7.857c-5.424-5.534-12.174-12.42-25.306-12.42
			s-19.881,6.886-25.305,12.421c-4.637,4.731-7.701,7.856-14.443,7.856c-6.744,0-9.808-3.126-14.447-7.857
			c-5.424-5.534-12.174-12.42-25.306-12.42c-8.093,0-13.757,2.618-18.186,5.92V197.67z M393.45,260.225v44.54H118.551V260.21
			c1.343-1.235,2.578-2.486,3.739-3.67c4.638-4.732,7.702-7.857,14.447-7.857s9.808,3.126,14.445,7.857
			c5.424,5.533,12.174,12.42,25.307,12.42c13.132,0,19.881-6.887,25.304-12.42c4.637-4.732,7.701-7.857,14.443-7.857
			c6.744,0,9.808,3.126,14.446,7.857c5.424,5.533,12.174,12.42,25.306,12.42c13.133,0,19.883-6.886,25.307-12.42
			c4.638-4.732,7.702-7.857,14.446-7.857c6.744,0,9.809,3.126,14.448,7.857c5.424,5.534,12.174,12.42,25.308,12.42
			c13.133,0,19.883-6.886,25.308-12.42c4.638-4.732,7.702-7.857,14.446-7.857c6.746,0,9.81,3.126,14.45,7.858
			C390.873,257.735,392.106,258.99,393.45,260.225z M64.833,319.973h38.508h305.315h38.508v43.554
			c-8.349,2.023-13.444,7.189-17.705,11.536c-4.639,4.732-7.704,7.857-14.451,7.857c-6.746,0-9.811-3.126-14.45-7.857
			c-5.425-5.534-12.175-12.42-25.309-12.42c-13.133,0-19.883,6.886-25.307,12.42c-4.638,4.732-7.702,7.857-14.448,7.857
			c-6.744,0-9.809-3.126-14.448-7.857c-5.424-5.534-12.174-12.42-25.307-12.42c-13.133,0-19.883,6.886-25.307,12.42
			c-4.638,4.732-7.702,7.857-14.447,7.857s-9.808-3.126-14.446-7.857c-5.424-5.533-12.174-12.42-25.306-12.42
			s-19.881,6.887-25.305,12.421c-4.637,4.731-7.7,7.856-14.443,7.856c-6.744,0-9.808-3.126-14.446-7.857
			c-5.424-5.533-12.174-12.42-25.306-12.42c-13.133,0-19.883,6.886-25.307,12.42c-4.638,4.732-7.702,7.857-14.447,7.857
			s-9.808-3.126-14.447-7.857c-4.26-4.346-9.355-9.513-17.702-11.536V319.973z M64.833,379.768c2.359,1.379,4.381,3.431,6.843,5.941
			c5.424,5.534,12.174,12.42,25.307,12.42c13.133,0,19.883-6.886,25.307-12.42c4.638-4.732,7.702-7.857,14.447-7.857
			s9.808,3.126,14.445,7.857c5.424,5.534,12.174,12.42,25.307,12.42c13.132,0,19.881-6.886,25.304-12.42
			c4.637-4.732,7.701-7.857,14.443-7.857c6.744,0,9.808,3.126,14.446,7.857c5.424,5.534,12.174,12.42,25.306,12.42
			c13.133,0,19.883-6.886,25.307-12.42c4.638-4.732,7.702-7.857,14.446-7.857c6.744,0,9.809,3.126,14.448,7.857
			c5.424,5.534,12.174,12.42,25.308,12.42c13.133,0,19.883-6.886,25.308-12.42c4.638-4.732,7.702-7.857,14.446-7.857
			c6.746,0,9.811,3.126,14.45,7.858c5.425,5.533,12.175,12.419,25.309,12.419c13.134,0,19.885-6.886,25.309-12.419
			c2.463-2.511,4.484-4.563,6.846-5.943v76.792H64.833V379.768z M496.792,493.575H15.208v-21.808h34.418h412.748h34.419V493.575z"/>
	</g>
</g>
<g>
	<g>
		<rect x="288.2" y="274.35" width="59.6" height="15.208"/>
	</g>
</g>
<g>
	<g>
		<rect x="361.36" y="274.35" width="15.817" height="15.208"/>
	</g>
</g>
<g>
	<g>
		<rect x="267.528" y="426.146" width="130.748" height="15.208"/>
	</g>
</g>
<g>
	<g>
		<rect x="411.831" y="426.146" width="15.817" height="15.208"/>
	</g>
</g>
<g>
	<g>
		<rect x="403.922" y="341.407" width="15.817" height="15.208"/>
	</g>
</g>
<g>
	<g>
		<rect x="324.993" y="328.947" width="15.817" height="15.208"/>
	</g>
</g>
<g>
	<g>
		<rect x="256" y="341.407" width="15.817" height="15.208"/>
	</g>
</g>
<g>
	<g>
		<rect x="161.66" y="216.814" width="15.817" height="15.208"/>
	</g>
</g>
<g>
	<g>
		<rect x="224.134" y="203.167" width="15.817" height="15.208"/>
	</g>
</g>
<g>
	<g>
		<rect x="277.534" y="209.098" width="15.817" height="15.208"/>
	</g>
</g>
<g>
	<g>
		<rect x="339.887" y="211.471" width="15.817" height="15.208"/>
	</g>
</g>
<g>
	<g>
		<rect x="409.306" y="89.838" width="15.817" height="15.208"/>
	</g>
</g>
<g>
	<g>
		<rect x="110.947" y="22.795" width="15.817" height="15.208"/>
	</g>
</g>
<g>
	<g>
		<rect x="429.482" y="28.728" width="15.817" height="15.208"/>
	</g>
</g>
<g>
	<g>
		<rect x="450.844" y="70.854" width="15.817" height="15.208"/>
	</g>
</g>
<g>
	<g>
		<rect x="81.2" y="65.515" width="15.817" height="15.208"/>
	</g>
</g>
<g>
	<g>
		<rect x="39.077" y="33.477" width="15.817" height="15.208"/>
	</g>
</g>
<g>
	<g>
		<rect x="97.016" y="110.014" width="15.817" height="15.208"/>
	</g>
</g>
<g>
	<g>
		<rect x="393.145" y="3.216" width="15.817" height="15.208"/>
	</g>
</g>
<g>
	<g>
		<rect x="172.448" y="328.947" width="15.817" height="15.208"/>
	</g>
</g>
<g>
	<g>
		<rect x="95.131" y="341.407" width="15.817" height="15.208"/>
	</g>
</g>
<g>
</g>
<g>
</g>
<g>
</g>
<g>
</g>
<g>
</g>
<g>
</g>
<g>
</g>
<g>
</g>
<g>
</g>
<g>
</g>
<g>
</g>
<g>
</g>
<g>
</g>
<g>
</g>
<g>
</g>
</svg>
