<?xml version="1.0" encoding="utf-8"?>
<!-- Generator: Adobe Illustrator 19.2.0, SVG Export Plug-In . SVG Version: 6.00 Build 0)  -->
<svg version="1.1" id="Layer_1" xmlns="http://www.w3.org/2000/svg" xmlns:xlink="http://www.w3.org/1999/xlink" x="0px" y="0px"
	 viewBox="0 0 45.3 45.3" style="enable-background:new 0 0 45.3 45.3;" xml:space="preserve">
<style type="text/css">
	.st0{clip-path:url(#SVGID_2_);fill:#848484;}
	.st1{fill:#848484;}
</style>
<g>
	<g>
		<g>
			<defs>
				<rect id="SVGID_1_" x="2.5" y="1.9" width="42.1" height="43.6"/>
			</defs>
			<clipPath id="SVGID_2_">
				<use xlink:href="#SVGID_1_"  style="overflow:visible;"/>
			</clipPath>
			<path class="st0" d="M44.6,16c-0.2-3.8-2.8-7.3-7.3-9.9c-4.4-2.5-10.2-4-16.4-4.1c-0.3,0-0.5,0.1-0.7,0.3L2.7,25.8
				c-0.1,0.2-0.2,0.4-0.2,0.6v18.2c0,0.5,0.6,1,1.1,0.8L44,35.3c0.4-0.1,0.7-0.4,0.7-0.8L44.6,16z M21.3,3.7
				C27,3.9,32.4,5.2,36.4,7.6c3.7,2.1,6,4.9,6.4,7.8L5.7,24.8H5.6L21.3,3.7z M42.9,33.8L4.3,43.5v-4.9l38.6-9.7V33.8z M42.9,27.1
				L4.3,36.8v-2.1l38.6-9.8V27.1z M42.9,23.2L4.3,32.9v-6l2-0.5l36.6-9.2V23.2z"/>
		</g>
	</g>
	<path class="st1" d="M29.8,9.2c1.6,0.5,3.1,1.2,4.5,1.9c0,0.2,0.2,0.2,0.3,0.2c0.3,0,0.6-0.2,0.8-0.4c0.2-0.4,0.1-0.9-0.3-1.2
		c-1.4-0.8-3-1.5-4.8-2.1c-0.5-0.1-0.9,0.1-1.1,0.6C29.1,8.6,29.3,9.1,29.8,9.2L29.8,9.2z"/>
	<path class="st1" d="M22.6,7.9c1,0.1,2,0.2,3,0.4h0.1c0.4,0,0.8-0.3,0.9-0.7c0.1-0.5-0.2-0.9-0.7-1c-1-0.2-2.1-0.3-3.1-0.4
		c-0.5,0-0.9,0.3-0.9,0.8C21.7,7.4,22.1,7.9,22.6,7.9L22.6,7.9z"/>
	<path class="st1" d="M28.4,24.9c0.1,0,0.1,0,0.2,0l3.1-0.8c0.5-0.1,0.7-0.6,0.6-1.1c-0.1-0.5-0.6-0.7-1.1-0.6l-3.1,0.8
		c-0.5,0.1-0.7,0.6-0.6,1.1C27.7,24.6,28,24.9,28.4,24.9L28.4,24.9z"/>
	<path class="st1" d="M7.2,30.2c0.1,0,0.1,0,0.2,0l17.5-4.4c0.5-0.1,0.7-0.6,0.6-1.1s-0.6-0.7-1.1-0.6L7,28.5
		c-0.5,0.1-0.7,0.6-0.6,1.1C6.5,29.9,6.9,30.2,7.2,30.2L7.2,30.2z"/>
</g>
</svg>
