<?xml version="1.0" encoding="utf-8"?>
<!-- Generator: Adobe Illustrator 19.2.0, SVG Export Plug-In . SVG Version: 6.00 Build 0)  -->
<svg version="1.1" id="Layer_1" xmlns="http://www.w3.org/2000/svg" xmlns:xlink="http://www.w3.org/1999/xlink" x="0px" y="0px"
	 viewBox="0 0 388.6 388.6" style="enable-background:new 0 0 388.6 388.6;" xml:space="preserve">
<style type="text/css">
	.st0{fill:#848484;stroke:#848484;stroke-width:0.5;stroke-miterlimit:10;}
</style>
<g>
	<g>
		<path class="st0" d="M194,169c-38.6,0-70,31.4-70,70s31.4,70,70,70s70-31.4,70-70S232.7,169,194,169L194,169z M200,187.8v-6.5
			c11.5,1.2,22,5.8,30.5,12.7L177,247.6c-2.3,2.3-2.3,6.1,0,8.5c1.2,1.2,2.7,1.8,4.2,1.8s3.1-0.6,4.2-1.8l53.6-53.6
			c6.9,8.5,11.5,19,12.7,30.5h-6.5c-3.3,0-6,2.7-6,6s2.7,6,6,6h6.5c-2.8,27.2-24.5,48.9-51.7,51.7v-12.9c0-3.3-2.7-6-6-6s-6,2.7-6,6
			v12.9c-27.2-2.8-48.9-24.5-51.7-51.7h6.5c3.3,0,6-2.7,6-6s-2.7-6-6-6h-6.5c2.8-27.2,24.5-48.9,51.7-51.7v6.5c0,3.3,2.7,6,6,6
			C197.4,193.8,200,191.1,200,187.8L200,187.8z"/>
		<path class="st0" d="M365.8,12.4c-1-2.1-3.1-3.4-5.4-3.4H27.7c-2.3,0-4.4,1.3-5.4,3.4s-0.8,4.5,0.7,6.3l41,52.7
			c3.6,4.6,9,7.3,14.8,7.3h59.5L141,90c2.1,8.4,9.6,14.2,18.2,14.2h9.6c0,0.1,0,0.3,0,0.4v13.2h-0.4c-6.8,0-12.4,5.6-12.4,12.4v21.1
			C122.2,166,98.5,199.8,98.5,239c0,0.3,0,0.6,0,0.9c-11.1,2.2-19.5,11.7-20.1,23.4l-5.5,109.8c-0.1,1.6,0.5,3.2,1.6,4.4
			c1.1,1.2,2.7,1.9,4.3,1.9h230.4c1.6,0,3.2-0.7,4.3-1.9c1.1-1.2,1.7-2.8,1.6-4.4l-5.5-109.8c-0.6-11.7-9.1-21.2-20.1-23.4
			c0-0.3,0-0.6,0-0.9c0-39.2-23.7-73-57.6-87.7v-21.1c0-6.8-5.6-12.4-12.4-12.4h-0.4v-13.2c0-0.1,0-0.3,0-0.4h9.6
			c8.6,0,16.1-5.9,18.2-14.2l2.8-11.4h59.5c5.8,0,11.3-2.6,14.8-7.3l41-52.7C366.6,16.9,366.8,14.4,365.8,12.4L365.8,12.4z
			 M297.8,263.9l5.2,103.5H85.2l5.2-103.5c0.3-5.6,4-10.2,9-11.9c6.4,46.5,46.4,82.5,94.7,82.5s88.3-36,94.7-82.5
			C293.8,253.8,297.5,258.4,297.8,263.9L297.8,263.9z M226,161.8C226.1,161.8,226.1,161.8,226,161.8c30.3,12.6,51.6,42.5,51.6,77.2
			c0,46.1-37.5,83.6-83.6,83.6s-83.6-37.5-83.6-83.6c0-34.7,21.3-64.6,51.5-77.2c0,0,0,0,0.1,0c1.6,0,3-0.6,4.1-1.6
			c8.7-3.1,18.1-4.8,27.9-4.8c9.8,0,19.2,1.7,27.9,4.8C223.1,161.2,224.5,161.8,226,161.8L226,161.8z M219.7,129.8
			c0.2,0,0.4,0.2,0.4,0.4V147c-8.3-2.3-17-3.6-26-3.6s-17.7,1.3-26,3.6v-16.8c0-0.2,0.2-0.4,0.4-0.4H219.7z M180.8,104.2h26.4
			c0,0.1,0,0.3,0,0.4v13.2h-26.4v-13.2C180.8,104.5,180.8,104.3,180.8,104.2L180.8,104.2z M235.5,87.1c-0.8,3-3.5,5.1-6.6,5.1h-69.6
			c-3.1,0-5.8-2.1-6.6-5.1l-2.1-8.4h87L235.5,87.1z M314.8,64c-1.3,1.7-3.3,2.6-5.4,2.6H78.7c-2.1,0-4.1-1-5.4-2.6L39.9,21h308.3
			L314.8,64z"/>
	</g>
</g>
</svg>
