<?xml version="1.0" encoding="utf-8"?>
<!-- Generator: Adobe Illustrator 19.2.0, SVG Export Plug-In . SVG Version: 6.00 Build 0)  -->
<svg version="1.1" id="Layer_1" xmlns="http://www.w3.org/2000/svg" xmlns:xlink="http://www.w3.org/1999/xlink" x="0px" y="0px"
	 viewBox="0 0 45.3 45.3" style="enable-background:new 0 0 45.3 45.3;" xml:space="preserve">
<style type="text/css">
	.st0{fill:#848484;}
</style>
<g>
	<path class="st0" d="M22.7,38.7c-9,0-16.3-7.3-16.3-16.3S13.7,6.1,22.7,6.1c3.1,0,6,0.8,8.6,2.4c0.5,0.3,0.6,0.9,0.3,1.3
		c-0.3,0.5-0.9,0.6-1.3,0.3c-2.3-1.4-4.9-2.2-7.6-2.2c-7.9,0-14.4,6.5-14.4,14.4s6.5,14.4,14.4,14.4s14.4-6.5,14.4-14.4
		c0-1.6-0.3-3.2-0.8-4.7c-0.2-0.5,0.1-1,0.6-1.2s1,0.1,1.2,0.6c0.6,1.7,0.9,3.5,0.9,5.3C39,31.4,31.7,38.7,22.7,38.7L22.7,38.7z"/>
	<path class="st0" d="M22.7,27.9c-0.2,0-0.5-0.1-0.7-0.3l-7.7-7.2c-0.4-0.4-0.4-1,0-1.4s1-0.4,1.4,0l6.9,6.5l12.6-15
		c0.3-0.4,0.9-0.5,1.4-0.1c0.4,0.3,0.5,0.9,0.1,1.4L23.4,27.5C23.2,27.8,23,27.9,22.7,27.9L22.7,27.9L22.7,27.9z"/>
</g>
</svg>
