<?xml version="1.0" encoding="utf-8"?>
<!-- Generator: Adobe Illustrator 19.2.0, SVG Export Plug-In . SVG Version: 6.00 Build 0)  -->
<svg version="1.1" id="Layer_1" xmlns="http://www.w3.org/2000/svg" xmlns:xlink="http://www.w3.org/1999/xlink" x="0px" y="0px"
	 viewBox="0 0 49.5 49.4" style="enable-background:new 0 0 49.5 49.4;" xml:space="preserve">
<style type="text/css">
	.st0{fill:#848484;}
</style>
<g>
	<path class="st0" d="M44.3,36.5l0.3-0.9c0.3-0.8,0.4-1.7,0.3-2.9c0-0.3-0.1-0.6-0.1-1c-0.1-1.1-0.2-1.8,0.3-2.5
		c0.1-0.2,0.5-0.6,0.8-1c1.4-1.6,2.3-2.8,2.3-3.8s-1-2.2-2.3-3.8c-0.3-0.4-0.6-0.8-0.8-1c-0.5-0.7-0.4-1.3-0.3-2.5
		c0-0.3,0.1-0.6,0.1-0.9c0.3-3.6-0.8-4.2-2.6-4.7c-0.9-0.3-1.9-0.6-3-1.7s-1.4-2.1-1.7-3C37,5,36.4,3.9,32.8,4.2
		c-0.3,0-0.6,0.1-0.9,0.1c-1.1,0.1-1.8,0.2-2.5-0.3c-0.2-0.2-0.6-0.5-1-0.8c-1.6-1.4-2.8-2.3-3.8-2.3s-2.2,1-3.8,2.3
		c-0.4,0.3-0.8,0.6-1,0.8c-0.7,0.5-1.4,0.4-2.5,0.3c-0.3,0-0.6-0.1-1-0.1c-3.5-0.3-4.2,0.8-4.7,2.6c-0.3,0.9-0.6,1.9-1.7,3
		s-2.1,1.4-3,1.7c-1.8,0.6-2.9,1.2-2.6,4.7c0,0.3,0.1,0.6,0.1,1c0.1,1.1,0.2,1.8-0.3,2.5c-0.2,0.2-0.5,0.6-0.8,1
		C2,22.3,1,23.5,1,24.5s1,2.2,2.3,3.8c0.3,0.4,0.7,0.8,0.8,1c0.5,0.7,0.4,1.3,0.3,2.5c0,0.3-0.1,0.6-0.1,1C4,36.4,5.1,37,6.9,37.5
		c0.9,0.3,1.9,0.6,3,1.7c1.1,1.1,1.4,2.1,1.7,3c0.6,1.8,1.2,2.9,4.7,2.6c0.3,0,0.6-0.1,1-0.1c1.1-0.1,1.8-0.2,2.5,0.3
		c0.2,0.2,0.6,0.5,1,0.8c1.6,1.4,2.8,2.3,3.8,2.3s2.2-1,3.8-2.3c0.4-0.3,0.8-0.7,1-0.8c0.7-0.5,1.4-0.4,2.5-0.3
		c0.3,0,0.5,0.1,0.8,0.1l1.3,0.1l-6.9-18.1L44.3,36.5z M28.5,43.6c-0.3,0.2-0.7,0.5-1.1,0.9c-0.7,0.6-2.3,1.9-2.8,1.9
		s-2.1-1.4-2.8-1.9c-0.4-0.4-0.8-0.7-1.1-0.9c-0.8-0.5-1.5-0.7-2.2-0.7c-0.5,0-0.9,0.1-1.3,0.1c-0.3,0-0.6,0.1-0.9,0.1
		c-2.5,0.2-2.7-0.2-3.1-1.5c-0.3-1-0.7-2.3-2.1-3.6c-1.4-1.4-2.7-1.8-3.6-2.1c-1.3-0.4-1.7-0.5-1.5-3.1c0-0.3,0.1-0.6,0.1-0.9
		c0.1-1.1,0.3-2.3-0.5-3.6c-0.2-0.3-0.5-0.7-0.9-1.1C4,26.6,2.6,25,2.6,24.5s1.4-2.1,1.9-2.8c0.4-0.4,0.7-0.8,0.9-1.1
		C6.3,19.3,6.1,18.1,6,17c0-0.3-0.1-0.6-0.1-0.9c-0.2-2.5,0.2-2.7,1.5-3.1c1-0.3,2.3-0.7,3.6-2.1c1.4-1.4,1.8-2.7,2.1-3.6
		c0.4-1.3,0.5-1.7,3.1-1.5c0.3,0,0.6,0.1,0.9,0.1c1.1,0.1,2.3,0.3,3.6-0.5c0.3-0.2,0.7-0.5,1.1-0.9c0.7-0.6,2.3-1.9,2.8-1.9
		s2.1,1.4,2.8,1.9c0.4,0.4,0.8,0.7,1.1,0.9C29.7,6.1,30.9,6,32,5.9c0.3,0,0.6-0.1,0.9-0.1C35.5,5.6,35.6,6,36,7.3
		c0.3,1,0.7,2.3,2.1,3.6c1.4,1.4,2.7,1.8,3.6,2.1c1.3,0.4,1.7,0.5,1.5,3.1c0,0.3-0.1,0.6-0.1,0.9c-0.1,1.1-0.3,2.3,0.5,3.6
		c0.2,0.3,0.5,0.7,0.9,1.1c0.6,0.7,1.9,2.3,1.9,2.8s-1.4,2.1-1.9,2.8c-0.4,0.5-0.7,0.8-0.9,1.1c-0.8,1.2-0.7,2.4-0.5,3.6
		c0,0.3,0.1,0.6,0.1,0.9c0,0.5,0,0.9,0,1.3l-2.8-1.6c0.1-0.1,0.1-0.1,0.1-0.2c1.2-2.4,1.8-5,1.8-7.7C42.4,14.9,34.5,7,24.8,7
		S7.2,14.9,7.2,24.6s7.9,17.6,17.6,17.6c2.1,0,4.1-0.4,6-1.1l0.7,1.8C30.5,42.9,29.5,42.9,28.5,43.6L28.5,43.6z M30.3,39.7
		c-1.7,0.6-3.6,1-5.4,1c-8.8,0-16-7.2-16-16s7.2-16,16-16s16,7.2,16,16c0,2.4-0.5,4.8-1.6,7v0.1L24,23.1L30.3,39.7z"/>
	<path class="st0" d="M25.2,19.1c0.2,0,0.4-0.1,0.6-0.2c2.2-2.2,2.2-5.7,0-7.9c-0.3-0.3-0.8-0.3-1.1,0c-1.1,1.1-1.6,2.5-1.6,4
		s0.6,2.9,1.6,4C24.8,19.1,25,19.1,25.2,19.1L25.2,19.1z M25.2,12.9c0.8,1.3,0.8,2.9,0,4.2c-0.4-0.6-0.6-1.3-0.6-2.1
		C24.6,14.2,24.8,13.5,25.2,12.9L25.2,12.9z"/>
	<path class="st0" d="M24.6,38.7c0.2,0.2,0.4,0.2,0.6,0.2s0.4-0.1,0.6-0.2c2.2-2.2,2.2-5.7,0-7.9c-0.3-0.3-0.8-0.3-1.1,0
		c-1.1,1.1-1.6,2.5-1.6,4C23,36.2,23.6,37.6,24.6,38.7L24.6,38.7z M25.2,32.6c0.8,1.3,0.8,2.9,0,4.2c-0.4-0.6-0.6-1.3-0.6-2.1
		C24.6,34,24.8,33.3,25.2,32.6L25.2,32.6z"/>
	<path class="st0" d="M31.1,24.3c-0.3,0.3-0.3,0.8,0,1.1c1.1,1.1,2.5,1.6,4,1.6s2.9-0.6,4-1.6c0.3-0.3,0.3-0.8,0-1.1
		C36.8,22.1,33.3,22.1,31.1,24.3L31.1,24.3z M33,24.8c1.3-0.8,2.9-0.8,4.2,0c-0.6,0.4-1.3,0.6-2.1,0.6C34.3,25.4,33.6,25.2,33,24.8
		L33,24.8z"/>
	<path class="st0" d="M19.2,25.4c0.3-0.3,0.3-0.8,0-1.1c-2.2-2.2-5.7-2.2-7.9,0c-0.3,0.3-0.3,0.8,0,1.1c1.1,1.1,2.5,1.6,4,1.6
		S18.2,26.5,19.2,25.4L19.2,25.4z M17.4,24.8c-0.6,0.4-1.3,0.6-2.1,0.6c-0.8,0-1.5-0.2-2.1-0.6C14.5,24,16.1,24,17.4,24.8L17.4,24.8
		z"/>
	<path class="st0" d="M29.8,21c3.1,0,5.6-2.5,5.6-5.6c0-0.4-0.4-0.8-0.8-0.8c-3.1,0-5.6,2.5-5.6,5.6C29,20.7,29.3,21,29.8,21
		L29.8,21z M33.6,16.4c-0.3,1.5-1.5,2.6-3,3C31,17.9,32.2,16.7,33.6,16.4L33.6,16.4z"/>
	<path class="st0" d="M20.6,28.4c-1.5,0-2.9,0.7-4,1.8c-1.1,1.1-1.6,2.6-1.6,4.1c0,0.4,0.4,0.8,0.8,0.8c3.1,0,5.6-2.5,5.6-5.6v-0.1
		v-0.1C21.4,28.7,21,28.4,20.6,28.4L20.6,28.4z M16.7,33.3c0.2-0.8,0.5-1.5,1.1-2c0.5-0.5,1.2-1,2-1.2
		C19.4,31.7,18.2,32.9,16.7,33.3L16.7,33.3z"/>
	<path class="st0" d="M19.7,16.3c-1.1-1.1-2.5-1.6-4-1.6c-0.4,0-0.8,0.4-0.8,0.8l0,0l0,0c0,1.5,0.6,2.9,1.6,4c1.1,1.1,2.5,1.7,4,1.7
		c0.4,0,0.8-0.4,0.8-0.8c0,0,0,0,0-0.1c0,0,0,0,0-0.1C21.4,18.7,20.8,17.3,19.7,16.3L19.7,16.3z M16.7,16.4c0.7,0.2,1.4,0.5,1.9,1.1
		c0.6,0.6,0.9,1.3,1.1,2c-0.7-0.2-1.4-0.6-1.9-1.1C17.2,17.8,16.9,17.1,16.7,16.4L16.7,16.4z"/>
	<path class="st0" d="M37.8,48.2l0.7-0.2c0.2-0.1,5.4-1.7,7.7-7.7l0.2-0.6L29.1,29.1L37.8,48.2z M32.7,33.2l8.4,5.1l0,0
		c0,2.5-1.7,4.5-3.9,4.7L32.7,33.2z M38.6,46.2l-0.8-1.7c2.5-0.5,4.4-2.6,4.8-5.3l1.8,1.1C42.8,44,39.9,45.7,38.6,46.2L38.6,46.2z"
		/>
</g>
</svg>
