<?xml version="1.0" encoding="utf-8"?>
<!-- Generator: Adobe Illustrator 19.2.0, SVG Export Plug-In . SVG Version: 6.00 Build 0)  -->
<svg version="1.1" id="Layer_1" xmlns="http://www.w3.org/2000/svg" xmlns:xlink="http://www.w3.org/1999/xlink" x="0px" y="0px"
	 viewBox="0 0 45.3 45.3" style="enable-background:new 0 0 45.3 45.3;" xml:space="preserve">
<style type="text/css">
	.st0{fill:#848484;}
</style>
<g>
	<path class="st0" d="M27.9,22.1c-1.6,0-2.6,0.3-3.3,0.5c-0.6,0.2-1,0.3-1.7,0.3c-0.6,0-1.2-0.3-2-0.6c-1.3-0.5-2.8-1.1-5-1.1
		c-0.5,0-0.9,0.4-0.9,0.9s0.4,0.9,0.9,0.9c1.9,0,3.2,0.5,4.4,1c0.9,0.4,1.8,0.7,2.7,0.7c0.9,0,1.6-0.2,2.2-0.4
		c0.7-0.2,1.5-0.5,2.8-0.5c0.5,0,0.9-0.4,0.9-0.9S28.3,22.1,27.9,22.1z"/>
	<path class="st0" d="M41.7,16c0-6.5-4.1-10.4-10.8-10.4c-3,0-6.7,1.1-10.1,2.9c-2.1-0.7-4.3-1.2-6.2-1.2c-6.8,0-10.8,3.9-10.8,10.4
		c0,4.6,3.2,8.1,6.9,9.6v7.8c0,0.9,0.4,1.8,1,2.4c0.7,0.7,1.5,1,2.4,1h17.3c1.9,0,3.5-1.6,3.5-3.5v-9.5C38.5,24.1,41.7,20.6,41.7,16
		z M31.3,36.9H14c-0.5,0-0.9-0.2-1.2-0.5s-0.5-0.8-0.5-1.2v-3.5H33v3.5C33.1,36.1,32.3,36.9,31.3,36.9z M30.9,24.7
		c-0.5,0-0.9,0.4-0.9,0.9s0.4,0.9,0.9,0.9c0.7,0,1.5-0.1,2.2-0.3V30H12.3v-2.1c0.7,0.2,1.5,0.3,2.2,0.3c0.5,0,0.9-0.4,0.9-0.9
		s-0.4-0.9-0.9-0.9c-4.3,0-9.1-3.6-9.1-8.6c0-7.8,6.4-8.6,9.1-8.6c5,0,11.9,3.3,15.3,7.3c0.3,0.4,0.9,0.4,1.2,0.1
		c0.4-0.3,0.4-0.9,0.1-1.2c-2-2.4-5-4.4-8.2-5.9c2.8-1.3,5.7-2,8-2c2.7,0,9.1,0.8,9.1,8.6C40,21.1,35.2,24.7,30.9,24.7z"/>
</g>
</svg>
