<?xml version="1.0" encoding="utf-8"?>
<!-- Generator: Adobe Illustrator 21.1.0, SVG Export Plug-In . SVG Version: 6.00 Build 0)  -->
<svg version="1.1" id="Layer_1" xmlns="http://www.w3.org/2000/svg" xmlns:xlink="http://www.w3.org/1999/xlink" x="0px" y="0px"
	 viewBox="-49 141 512 512" style="enable-background:new -49 141 512 512;" xml:space="preserve">
<style type="text/css">
	.st0{clip-path:url(#SVGID_2_);}
	.st1{clip-path:url(#SVGID_4_);}
</style>
<g>
	<g>
		<defs>
			<rect id="SVGID_1_" x="-16.9" y="174" width="446.6" height="449.7"/>
		</defs>
		<clipPath id="SVGID_2_">
			<use xlink:href="#SVGID_1_"  style="overflow:visible;"/>
		</clipPath>
		<path class="st0" d="M427.3,183.8c-0.5-3.9-3.5-6.9-7.4-7.4c-34.7-4.3-70.5-0.6-103.5,10.8c-33,11.4-63.6,30.4-88.3,55.1
			l-56.4,56.4l-81.4,10.5c-1.9,0.2-3.6,1.1-4.9,2.4L7.1,390.2c-2.2,2.2-3,5.5-2.1,8.5c0.9,3,3.5,5.2,6.5,5.8l59.3,11l11.7,11.7
			l-24.8,13.4c-2.4,1.3-4,3.6-4.3,6.2c-0.4,2.6,0.5,5.3,2.4,7.2l94.1,94.1c1.6,1.6,3.8,2.5,6,2.5c0.4,0,0.8,0,1.2-0.1
			c2.6-0.4,4.9-2,6.2-4.3l13.4-24.8l11.7,11.7l11,59.3c0.6,3.1,2.8,5.6,5.8,6.5c0.8,0.3,1.7,0.4,2.5,0.4c2.2,0,4.4-0.9,6-2.5
			l78.5-78.5c1.3-1.3,2.2-3,2.4-4.9L305,432l56.4-56.4c24.7-24.7,43.8-55.2,55.1-88.3C427.9,254.3,431.6,218.5,427.3,183.8
			L427.3,183.8z M72.2,398.5l-41.7-7.7l65-65l56.8-7.3L72.2,398.5z M153.8,528.1L75.7,450L95,439.6l69.2,69.2L153.8,528.1z
			 M278.1,508.3l-65,65l-7.7-41.7l80.1-80.1L278.1,508.3z M349.4,363.6L196.2,516.9L86.9,407.6l153.2-153.2
			c22.3-22.3,49.6-39.6,79.3-50.2c3.8,19.7,13.5,38,27.8,52.4c14.3,14.3,32.6,24,52.4,27.8C389,314,371.7,341.4,349.4,363.6
			L349.4,363.6z M404.7,268.1c-17.1-2.9-33.1-11.1-45.5-23.5c-12.4-12.4-20.6-28.3-23.5-45.5c24.5-6.6,50.3-8.9,75.6-6.5
			C413.6,217.8,411.3,243.6,404.7,268.1L404.7,268.1z M404.7,268.1"/>
	</g>
	<path d="M231.9,299.3c-20,20-20,52.6,0,72.6c10,10,23.1,15,36.3,15c13.1,0,26.3-5,36.3-15c20-20,20-52.6,0-72.6
		C284.5,279.3,251.9,279.3,231.9,299.3L231.9,299.3z M292.5,359.9c-13.4,13.4-35.2,13.4-48.6,0c-13.4-13.4-13.4-35.2,0-48.6
		c6.7-6.7,15.5-10.1,24.3-10.1c8.8,0,17.6,3.4,24.3,10.1C305.9,324.7,305.9,346.5,292.5,359.9L292.5,359.9z M292.5,359.9"/>
	<path d="M93.2,512.2c-3.3-3.3-8.7-3.3-12,0L8.7,584.7c-3.3,3.3-3.3,8.7,0,12c1.7,1.7,3.8,2.5,6,2.5c2.2,0,4.3-0.8,6-2.5l72.6-72.6
		C96.5,520.8,96.5,515.5,93.2,512.2L93.2,512.2z M93.2,512.2"/>
	<path d="M104.4,535.3L71.7,568c-3.3,3.3-3.3,8.7,0,12c1.7,1.7,3.8,2.5,6,2.5c2.2,0,4.3-0.8,6-2.5l32.7-32.7c3.3-3.3,3.3-8.7,0-12
		C113.1,532,107.7,532,104.4,535.3L104.4,535.3z M104.4,535.3"/>
	<path d="M60.3,582.9c-3.5,0-6.8,2.3-8,5.6c-1.2,3.4-0.1,7.3,2.7,9.5c2.9,2.3,7.1,2.4,10.1,0.3c3.2-2.2,4.5-6.6,3-10.2
		C66.8,585,63.6,582.9,60.3,582.9L60.3,582.9z M60.3,582.9"/>
	<path d="M68.1,588.2C68.3,588.7,67.9,587.7,68.1,588.2L68.1,588.2z M68.1,588.2"/>
	<g>
		<defs>
			<rect id="SVGID_3_" x="-16.9" y="174" width="446.6" height="449.7"/>
		</defs>
		<clipPath id="SVGID_4_">
			<use xlink:href="#SVGID_3_"  style="overflow:visible;"/>
		</clipPath>
		<path class="st1" d="M36.3,603.4l-4.5,4.5c-3.3,3.3-3.3,8.7,0,12c1.7,1.7,3.8,2.5,6,2.5c2.2,0,4.3-0.8,6-2.5l4.5-4.5
			c3.3-3.3,3.3-8.7,0-12C45,600.1,39.6,600.1,36.3,603.4L36.3,603.4z M36.3,603.4"/>
		<path class="st1" d="M30.2,528.9c-3.3-3.3-8.7-3.3-12,0l-32.7,32.7c-3.3,3.3-3.3,8.7,0,12c1.7,1.6,3.8,2.5,6,2.5
			c2.2,0,4.3-0.8,6-2.5l32.7-32.7C33.5,537.6,33.5,532.2,30.2,528.9L30.2,528.9z M30.2,528.9"/>
	</g>
	<path d="M43.7,525.7c3.4-0.9,6-3.9,6.4-7.4c0.4-3.4-1.5-6.8-4.6-8.4c-3.3-1.7-7.4-1-9.9,1.7c-2.7,2.8-3.1,7.2-1,10.5
		c-0.1-0.1-0.1-0.2,0,0c0.1,0.2,0.1,0.1,0,0C36.7,525.1,40.3,526.5,43.7,525.7L43.7,525.7z M43.7,525.7"/>
	<path d="M65.6,505.5l4.5-4.5c3.3-3.3,3.3-8.7,0-12c-3.3-3.3-8.7-3.3-12,0l-4.5,4.5c-3.3,3.3-3.3,8.7,0,12c1.7,1.7,3.8,2.5,6,2.5
		C61.8,508,63.9,507.2,65.6,505.5L65.6,505.5z M65.6,505.5"/>
</g>
</svg>
