<?xml version="1.0" encoding="utf-8"?>
<!-- Generator: Adobe Illustrator 21.1.0, SVG Export Plug-In . SVG Version: 6.00 Build 0)  -->
<svg version="1.1" id="Layer_1" xmlns="http://www.w3.org/2000/svg" xmlns:xlink="http://www.w3.org/1999/xlink" x="0px" y="0px"
	 viewBox="0 0 78.2 70.8" style="enable-background:new 0 0 78.2 70.8;" xml:space="preserve">
<style type="text/css">
	.st0{stroke:#000000;stroke-width:0.5;stroke-miterlimit:10;}
</style>
<g>
	<path class="st0" d="M20.3,47.1l-3.5,0.9c-0.4,0.1-0.7,0.6-0.6,1c0.1,0.4,0.4,0.6,0.8,0.6c0.1,0,0.1,0,0.2,0l3.5-0.9
		c0.4-0.1,0.7-0.6,0.6-1C21.1,47.3,20.7,47,20.3,47.1L20.3,47.1z M20.3,47.1"/>
	<path class="st0" d="M30,54.1l-2.4-0.8c-0.4-0.1-0.9,0.1-1,0.5c-0.1,0.4,0.1,0.9,0.5,1l2.4,0.8c0.1,0,0.2,0,0.3,0
		c0.3,0,0.6-0.2,0.8-0.6C30.6,54.7,30.4,54.2,30,54.1L30,54.1z M30,54.1"/>
	<path class="st0" d="M45.2,45.1c-0.4,0-0.8,0.4-0.8,0.8v3.2c0,0.4,0.4,0.8,0.8,0.8c0.4,0,0.8-0.4,0.8-0.8v-3.2
		C46,45.5,45.6,45.1,45.2,45.1L45.2,45.1z M45.2,45.1"/>
	<path class="st0" d="M25.7,36.5c0.2,0.2,0.4,0.3,0.6,0.3c0.2,0,0.4-0.1,0.5-0.2c0.3-0.3,0.4-0.8,0.1-1.1l-1.7-1.9
		c-0.3-0.3-0.8-0.4-1.1-0.1c-0.3,0.3-0.4,0.8-0.1,1.1L25.7,36.5z M25.7,36.5"/>
	<path class="st0" d="M44.3,40.7l2.4,0.8c0.1,0,0.2,0,0.3,0c0.3,0,0.6-0.2,0.8-0.5c0.1-0.4-0.1-0.9-0.5-1l-2.4-0.8
		c-0.4-0.1-0.9,0.1-1,0.5C43.7,40.1,43.9,40.6,44.3,40.7L44.3,40.7z M44.3,40.7"/>
	<path class="st0" d="M35.9,50.7c-0.4,0-0.8,0.3-0.8,0.8L35,52.5c0,0.4,0.3,0.8,0.8,0.8c0,0,0,0,0.1,0c0.4,0,0.8-0.3,0.8-0.8
		l0.1-1.1C36.7,51.1,36.4,50.7,35.9,50.7L35.9,50.7z M35.9,50.7"/>
	<path class="st0" d="M41.5,55c0.2,0.2,0.4,0.2,0.6,0.2c0.2,0,0.4-0.1,0.6-0.2c0.3-0.3,0.3-0.8,0-1.1l-0.8-0.8
		c-0.3-0.3-0.8-0.3-1.1,0c-0.3,0.3-0.3,0.8,0,1.1L41.5,55z M41.5,55"/>
	<path class="st0" d="M19.3,53.5c-0.3-0.3-0.8-0.3-1.1,0c-0.3,0.3-0.3,0.8,0,1.1l0.8,0.8c0.2,0.2,0.4,0.2,0.6,0.2s0.4-0.1,0.6-0.2
		c0.3-0.3,0.3-0.8,0-1.1L19.3,53.5z M19.3,53.5"/>
	<path class="st0" d="M42.1,37.6C42.1,37.6,42.1,37.6,42.1,37.6c0.5,0,0.8-0.4,0.8-0.8l0-1.1c0-0.4-0.4-0.8-0.8-0.8
		c-0.4,0-0.8,0.4-0.8,0.8l0.1,1.1C41.3,37.3,41.7,37.6,42.1,37.6L42.1,37.6z M42.1,37.6"/>
	<path class="st0" d="M17.4,41.8c0.1,0,0.1,0,0.2,0c0.4-0.1,0.7-0.5,0.6-1l-0.8-3.2c-0.1-0.4-0.5-0.7-1-0.6c-0.4,0.1-0.7,0.5-0.6,1
		l0.8,3.2C16.7,41.5,17.1,41.8,17.4,41.8L17.4,41.8z M17.4,41.8"/>
	<path class="st0" d="M13.3,44.1c-0.3-0.3-0.8-0.3-1.1,0c-0.3,0.3-0.3,0.8,0,1.1L13,46c0.2,0.2,0.4,0.2,0.6,0.2s0.4-0.1,0.6-0.2
		c0.3-0.3,0.3-0.8,0-1.1L13.3,44.1z M13.3,44.1"/>
	<path class="st0" d="M36.1,37.2c0.2,0.2,0.4,0.2,0.6,0.2s0.4-0.1,0.6-0.2c0.3-0.3,0.3-0.8,0-1.1l-0.8-0.8c-0.3-0.3-0.8-0.3-1.1,0
		c-0.3,0.3-0.3,0.8,0,1.1L36.1,37.2z M36.1,37.2"/>
	<path class="st0" d="M54,47.9l0-1.9c0-0.1,0-0.2-0.1-0.3c0-0.1,0-0.2,0-0.3c0-0.1,0-0.3,0-0.4c0-0.1,0-0.3,0-0.4
		c0-0.1,0-0.3-0.1-0.4c0-0.1,0-0.3-0.1-0.4c0-0.1-0.1-0.3-0.1-0.4c0-0.1-0.1-0.3-0.1-0.4c0-0.1-0.1-0.3-0.1-0.4
		c0-0.1-0.1-0.3-0.1-0.4c0-0.1-0.1-0.3-0.1-0.4c-0.1-0.1-0.1-0.3-0.2-0.4c-0.1-0.1-0.1-0.3-0.2-0.4c-0.1-0.1-0.1-0.2-0.2-0.4
		c-0.1-0.1-0.1-0.3-0.2-0.4c-0.1-0.1-0.1-0.2-0.2-0.4c-0.1-0.1-0.1-0.3-0.2-0.4c-0.1-0.1-0.1-0.2-0.2-0.4c-0.1-0.1-0.2-0.3-0.3-0.4
		c-0.1-0.1-0.2-0.2-0.2-0.3c-0.1-0.1-0.2-0.3-0.3-0.4c-0.1-0.1-0.2-0.2-0.3-0.3c-0.1-0.1-0.2-0.2-0.3-0.4c-0.1-0.1-0.2-0.2-0.3-0.3
		c-0.1-0.1-0.2-0.2-0.3-0.4c-0.1-0.1-0.2-0.2-0.3-0.3c-0.1-0.1-0.2-0.2-0.4-0.3c-0.1-0.1-0.2-0.2-0.3-0.3c-0.1-0.1-0.2-0.2-0.4-0.3
		c-0.1-0.1-0.2-0.2-0.3-0.3c-0.1-0.1-0.3-0.2-0.4-0.3c-0.1-0.1-0.2-0.2-0.4-0.3c-0.1-0.1-0.3-0.2-0.4-0.3c-0.1-0.1-0.3-0.2-0.4-0.3
		c-0.1-0.1-0.3-0.2-0.4-0.3c-0.1-0.1-0.3-0.2-0.4-0.2c-0.2-0.1-0.3-0.2-0.5-0.3c-0.1-0.1-0.3-0.2-0.4-0.2c-0.2-0.1-0.3-0.2-0.5-0.3
		c-0.1-0.1-0.3-0.1-0.4-0.2c-0.2-0.1-0.3-0.2-0.5-0.2c-0.1-0.1-0.3-0.1-0.5-0.2c-0.2-0.1-0.3-0.1-0.5-0.2c-0.2-0.1-0.3-0.1-0.5-0.2
		c-0.2-0.1-0.3-0.1-0.5-0.2c-0.2-0.1-0.3-0.1-0.5-0.2c-0.2-0.1-0.3-0.1-0.5-0.2c-0.2-0.1-0.3-0.1-0.5-0.2c-0.2-0.1-0.3-0.1-0.5-0.2
		c-0.2-0.1-0.4-0.1-0.5-0.2c-0.2,0-0.3-0.1-0.5-0.1c-0.2,0-0.4-0.1-0.6-0.1c-0.2,0-0.4-0.1-0.5-0.1c-0.2,0-0.4-0.1-0.6-0.1
		c-0.2,0-0.3-0.1-0.5-0.1c-0.2,0-0.4-0.1-0.6-0.1c-0.2,0-0.3-0.1-0.5-0.1c-0.2,0-0.4-0.1-0.7-0.1c-0.2,0-0.3,0-0.5-0.1
		c-0.2,0-0.5,0-0.7-0.1c-0.2,0-0.3,0-0.5,0c-0.3,0-0.6,0-0.8,0c-0.1,0-0.2,0-0.4,0c-0.4,0-0.8,0-1.2,0c-13,0-23.6,7.5-23.6,16.8
		c0,0.7,0.1,5.2,0.1,5.2c0,0,0,0.1,0,0.1l0,2.3C6.8,62.8,17.1,70,30.3,70c13,0,23.7-7.5,23.7-16.8l0-4.8C54,48.3,54,48.1,54,47.9
		L54,47.9z M52.3,46c0,0.1,0,0.4,0,0.6c0,0.3,0,0.8,0,1.3v0.5c0,1.5-0.2,3.4-1,4.3c-0.3,0.3-0.6,0.5-1,0.5c-0.1,0-0.2-0.1-0.2-0.1
		C50,53,50,52.9,50,52.8c0-0.4-0.4-0.8-0.8-0.8c-0.4,0-0.8,0.4-0.8,0.8v2.4c0,0.2-0.2,0.4-0.4,0.4c-0.2,0-0.4-0.2-0.4-0.4
		c0-0.4-0.4-0.8-0.8-0.8c-0.4,0-0.8,0.4-0.8,0.8v3.2c0,0.2-0.2,0.4-0.4,0.4c-0.2,0-0.4-0.2-0.4-0.4v-0.8c0-0.4-0.4-0.8-0.8-0.8
		s-0.8,0.4-0.8,0.8c0,0.2-0.2,0.4-0.4,0.4c-0.2,0-0.4-0.2-0.4-0.4c0-0.4-0.4-0.8-0.8-0.8c-0.4,0-0.8,0.4-0.8,0.8v4
		c0,0.2-0.2,0.4-0.4,0.4c-0.2,0-0.4-0.2-0.4-0.4v-2.8c0-0.4-0.4-0.8-0.8-0.8c-0.4,0-0.8,0.4-0.8,0.8c0,0.4-0.4,0.8-0.8,0.8
		c-0.4,0-0.8-0.4-0.8-0.8c0-0.4-0.4-0.8-0.8-0.8c-0.4,0-0.8,0.4-0.8,0.8v2.8c0,0.2-0.2,0.4-0.4,0.4c-0.2,0-0.4-0.2-0.4-0.4v-1.2
		c0-0.4-0.4-0.8-0.8-0.8c-0.4,0-0.8,0.4-0.8,0.8c0,0.4-0.4,0.8-0.8,0.8c-0.4,0-0.8-0.4-0.8-0.8c0-0.4-0.4-0.8-0.8-0.8
		c-0.4,0-0.8,0.4-0.8,0.8v3.2c0,0.4-0.4,0.8-0.8,0.8c-0.4,0-0.8-0.4-0.8-0.8v-2.8c0-0.4-0.4-0.8-0.8-0.8c-0.4,0-0.8,0.4-0.8,0.8
		c0,0.2-0.2,0.4-0.4,0.4c-0.2,0-0.4-0.2-0.4-0.4c0-0.4-0.4-0.8-0.8-0.8c-0.4,0-0.8,0.4-0.8,0.8V62c0,0.4-0.4,0.8-0.8,0.8
		c-0.4,0-0.8-0.4-0.8-0.8v-2.8c0-0.4-0.4-0.8-0.8-0.8c-0.4,0-0.8,0.4-0.8,0.8c0,0.2-0.2,0.4-0.4,0.4c-0.2,0-0.4-0.2-0.4-0.4
		c0-0.4-0.4-0.8-0.8-0.8c-0.4,0-0.8,0.4-0.8,0.8v1.6c0,0.2-0.2,0.4-0.4,0.4c-0.2,0-0.4-0.2-0.4-0.4v-4c0-0.4-0.4-0.8-0.8-0.8
		s-0.8,0.4-0.8,0.8c0,0.2-0.2,0.4-0.4,0.4c-0.2,0-0.4-0.2-0.4-0.4c0-0.4-0.4-0.8-0.8-0.8c-0.4,0-0.8,0.4-0.8,0.8v1.6
		c0,0.2-0.2,0.4-0.4,0.4c-0.2,0-0.4-0.2-0.4-0.4v-3.2c0-0.4-0.4-0.8-0.8-0.8s-0.8,0.4-0.8,0.8c0,0.2-0.2,0.4-0.4,0.4
		c-0.2,0-0.4-0.2-0.4-0.4v-3.9c0-0.2-0.1-0.4-0.2-0.6c-0.2-0.2-0.5-0.3-0.8-0.2c-0.3,0.1-0.5,0.4-0.5,0.7c0,0.2-0.2,0.4-0.4,0.4
		c-0.2,0-0.4-0.2-0.4-0.4c0-2.2,0-5.2,0-5.2c0-8.4,9.8-15.2,21.9-15.2C42.4,30.8,52.3,37.6,52.3,46L52.3,46z M30.3,68.4
		C18,68.4,8.4,61.9,8.4,53.5c0,0,0-0.1,0-0.4c0.1,0,0.3,0,0.4,0c0.1,0,0.3,0,0.4,0v2c0,1.1,0.9,2,2,2c0.1,0,0.3,0,0.4,0v1.2
		c0,1.1,0.9,2,2,2c1,0,1.8-0.7,2-1.6c0.3,0.1,0.6,0.1,0.8,0v2c0,1.1,0.9,2,2,2c1,0,1.8-0.7,2-1.6c0.3,0.1,0.6,0.1,0.8,0V62
		c0,1.3,1.1,2.4,2.4,2.4c1.1,0,2-0.7,2.3-1.7c0.3,0.1,0.6,0.1,0.9,0v0.8c0,1.3,1.1,2.4,2.4,2.4c1.3,0,2.4-1.1,2.4-2.4v-0.9
		c0.6,0.2,1.3,0.2,1.8-0.1c0.3,0.6,1,1,1.8,1c1.1,0,2-0.9,2-2V61c0.5,0.2,1.1,0.2,1.6,0v0.5c0,1.1,0.9,2,2,2c1.1,0,2-0.9,2-2v-2
		c0.4,0.1,0.8,0,1.1-0.1c0.4,0.6,1,0.9,1.7,0.9c1.1,0,2-0.9,2-2v-1.2c0.1,0,0.3,0,0.4,0c1.1,0,2-0.9,2-2v-0.4c0.1,0,0.3,0,0.4,0
		c0.8,0,1.4-0.3,1.9-0.8C51.8,62,42.1,68.4,30.3,68.4L30.3,68.4z M30.3,68.4"/>
	<path class="st0" d="M22,45.2c0,0.6,0.1,1.1,0.4,1.7c0,0,0,0,0,0.1c1.2,2.3,4.5,3.9,8.4,3.9c3.9,0,7.2-1.6,8.4-3.9c0,0,0,0,0-0.1
		c0.3-0.6,0.4-1.1,0.4-1.7c0-3.1-3.9-5.6-8.8-5.6C25.8,39.6,22,42,22,45.2L22,45.2z M24.3,46.9C24.3,46.9,24.4,46.9,24.3,46.9
		c0.5-0.2,0.9-0.3,1.4-0.4c0.1,0,0.1,0,0.2-0.1c0.4-0.1,0.9-0.2,1.4-0.3c0.1,0,0.2,0,0.3,0c0.5-0.1,0.9-0.1,1.4-0.2
		c0.1,0,0.2,0,0.2,0c0.5,0,1-0.1,1.6-0.1c0.5,0,1,0,1.6,0.1c0.1,0,0.2,0,0.2,0c0.5,0,1,0.1,1.4,0.2c0.1,0,0.2,0,0.3,0
		c0.5,0.1,0.9,0.2,1.4,0.3c0.1,0,0.1,0,0.2,0.1c0.5,0.1,0.9,0.3,1.3,0.4c0,0,0,0,0.1,0c-1.2,1.4-3.7,2.3-6.5,2.3
		C28,49.2,25.5,48.3,24.3,46.9L24.3,46.9z M30.8,41.2c3.9,0,7.2,1.8,7.2,4c0,0.1,0,0.2,0,0.3c0,0,0,0,0,0c-0.5-0.2-1-0.4-1.5-0.5
		c-0.1,0-0.2,0-0.2-0.1c-0.5-0.1-1-0.2-1.5-0.3c-0.1,0-0.2,0-0.3-0.1c-0.5-0.1-1.1-0.2-1.6-0.2c-0.1,0-0.2,0-0.2,0
		c-0.6,0-1.2-0.1-1.7-0.1c-0.6,0-1.2,0-1.7,0.1c-0.1,0-0.2,0-0.2,0c-0.5,0.1-1.1,0.1-1.6,0.2c-0.1,0-0.2,0-0.3,0.1
		c-0.5,0.1-1,0.2-1.5,0.3c-0.1,0-0.2,0-0.2,0.1c-0.5,0.1-1,0.3-1.5,0.5c0,0,0,0,0,0c0-0.1,0-0.2,0-0.3C23.6,43,26.9,41.2,30.8,41.2
		L30.8,41.2z M30.8,41.2"/>
</g>
<g>
	<path class="st0" d="M14.8,19.1l-3.5,0.9c-0.4,0.1-0.7,0.6-0.6,1c0.1,0.4,0.4,0.6,0.8,0.6c0.1,0,0.1,0,0.2,0l3.5-0.9
		c0.4-0.1,0.7-0.6,0.6-1C15.6,19.3,15.2,19,14.8,19.1L14.8,19.1z"/>
	<path class="st0" d="M14.8,19.1"/>
	<path class="st0" d="M21.5,26.8l1.5,0.5c0.3-0.5,0.6-0.9,0.9-1.4l-2-0.6c-0.4-0.1-0.9,0.1-1,0.5C20.9,26.2,21.1,26.6,21.5,26.8z"/>
	<path class="st0" d="M20.2,8.5c0.2,0.2,0.4,0.3,0.6,0.3c0.2,0,0.4-0.1,0.5-0.2c0.3-0.3,0.4-0.8,0.1-1.1l-1.7-1.9
		c-0.3-0.3-0.8-0.4-1.1-0.1c-0.3,0.3-0.4,0.8-0.1,1.1L20.2,8.5z M20.2,8.5"/>
	<path class="st0" d="M38.8,12.7l2.2,0.7c0.4-0.2,0.8-0.3,1.2-0.5c0.1-0.4-0.1-0.8-0.5-1l-2.4-0.8c-0.4-0.1-0.9,0.1-1,0.5
		C38.1,12.1,38.4,12.6,38.8,12.7z"/>
	<path class="st0" d="M13.8,25.5c-0.3-0.3-0.8-0.3-1.1,0c-0.3,0.3-0.3,0.8,0,1.1l0.8,0.8c0.2,0.2,0.4,0.2,0.6,0.2s0.4-0.1,0.6-0.2
		c0.3-0.3,0.3-0.8,0-1.1L13.8,25.5z"/>
	<path class="st0" d="M13.8,25.5"/>
	<path class="st0" d="M36.6,9.6C36.6,9.6,36.6,9.6,36.6,9.6c0.5,0,0.8-0.4,0.8-0.8l0-1.1c0-0.4-0.4-0.8-0.8-0.8
		c-0.4,0-0.8,0.4-0.8,0.8l0.1,1.1C35.8,9.3,36.2,9.6,36.6,9.6L36.6,9.6z M36.6,9.6"/>
	<path class="st0" d="M11.9,13.8c0.1,0,0.1,0,0.2,0c0.4-0.1,0.7-0.5,0.6-1l-0.8-3.2c-0.1-0.4-0.5-0.7-1-0.6c-0.4,0.1-0.7,0.5-0.6,1
		l0.8,3.2C11.2,13.5,11.5,13.8,11.9,13.8L11.9,13.8z"/>
	<path class="st0" d="M11.9,13.8"/>
	<path class="st0" d="M7.8,16c-0.3-0.3-0.8-0.3-1.1,0c-0.3,0.3-0.3,0.8,0,1.1L7.5,18c0.2,0.2,0.4,0.2,0.6,0.2c0.2,0,0.4-0.1,0.6-0.2
		c0.3-0.3,0.3-0.8,0-1.1L7.8,16z"/>
	<path class="st0" d="M7.8,16"/>
	<path class="st0" d="M30.5,9.2c0.2,0.2,0.4,0.2,0.6,0.2s0.4-0.1,0.6-0.2c0.3-0.3,0.3-0.8,0-1.1l-0.8-0.8c-0.3-0.3-0.8-0.3-1.1,0
		c-0.3,0.3-0.3,0.8,0,1.1L30.5,9.2z M30.5,9.2"/>
	<path class="st0" d="M24.8,2.8c9.2,0,17.1,3.9,20.4,9.5c0.6-0.1,1.1-0.2,1.7-0.2c-0.1-0.1-0.1-0.2-0.2-0.3
		c-0.1-0.1-0.1-0.3-0.2-0.4c-0.1-0.1-0.1-0.2-0.2-0.4c-0.1-0.1-0.2-0.3-0.3-0.4c-0.1-0.1-0.2-0.2-0.2-0.3c-0.1-0.1-0.2-0.3-0.3-0.4
		c-0.1-0.1-0.2-0.2-0.3-0.3c-0.1-0.1-0.2-0.2-0.3-0.4c-0.1-0.1-0.2-0.2-0.3-0.3c-0.1-0.1-0.2-0.2-0.3-0.4c-0.1-0.1-0.2-0.2-0.3-0.3
		c-0.1-0.1-0.2-0.2-0.4-0.3c-0.1-0.1-0.2-0.2-0.3-0.3c-0.1-0.1-0.2-0.2-0.4-0.3c-0.1-0.1-0.2-0.2-0.3-0.3c-0.1-0.1-0.3-0.2-0.4-0.3
		c-0.1-0.1-0.2-0.2-0.4-0.3c-0.1-0.1-0.3-0.2-0.4-0.3c-0.1-0.1-0.3-0.2-0.4-0.3c-0.1-0.1-0.3-0.2-0.4-0.3c-0.1-0.1-0.3-0.2-0.4-0.2
		C40,5.1,39.9,5,39.7,5c-0.1-0.1-0.3-0.2-0.4-0.2c-0.2-0.1-0.3-0.2-0.5-0.3c-0.1-0.1-0.3-0.1-0.4-0.2c-0.2-0.1-0.3-0.2-0.5-0.2
		c-0.1-0.1-0.3-0.1-0.5-0.2c-0.2-0.1-0.3-0.1-0.5-0.2c-0.2-0.1-0.3-0.1-0.5-0.2c-0.2-0.1-0.3-0.1-0.5-0.2C35.8,3.1,35.6,3,35.5,3
		c-0.2-0.1-0.3-0.1-0.5-0.2c-0.2-0.1-0.3-0.1-0.5-0.2c-0.2-0.1-0.3-0.1-0.5-0.2c-0.2-0.1-0.4-0.1-0.5-0.2c-0.2,0-0.3-0.1-0.5-0.1
		c-0.2,0-0.4-0.1-0.6-0.1c-0.2,0-0.4-0.1-0.5-0.1c-0.2,0-0.4-0.1-0.6-0.1c-0.2,0-0.3-0.1-0.5-0.1c-0.2,0-0.4-0.1-0.6-0.1
		c-0.2,0-0.3-0.1-0.5-0.1c-0.2,0-0.4-0.1-0.7-0.1c-0.2,0-0.3,0-0.5-0.1c-0.2,0-0.5,0-0.7-0.1c-0.2,0-0.3,0-0.5,0c-0.3,0-0.6,0-0.8,0
		c-0.1,0-0.2,0-0.4,0c-0.4,0-0.8,0-1.2,0C11.8,1.2,1.2,8.7,1.2,18c0,0.7,0.1,5.2,0.1,5.2c0,0,0,0.1,0,0.1l0,2.3
		c0,4.1,2,7.8,5.5,10.6c0.3-0.4,0.7-0.8,1-1.2c-3.1-2.6-4.9-5.8-4.9-9.5c0,0,0-0.1,0-0.4c0.1,0,0.3,0,0.4,0c0.1,0,0.3,0,0.4,0v2
		c0,1.1,0.9,2,2,2c0.1,0,0.3,0,0.4,0v1.2c0,1.1,0.9,2,2,2c1,0,1.8-0.7,2-1.6c0.3,0.1,0.6,0.1,0.8,0v1.6c0.5-0.4,1.1-0.7,1.6-1.1
		v-2.5c0-0.4-0.4-0.8-0.8-0.8c-0.4,0-0.8,0.4-0.8,0.8c0,0.2-0.2,0.4-0.4,0.4c-0.2,0-0.4-0.2-0.4-0.4c0-0.4-0.4-0.8-0.8-0.8
		c-0.4,0-0.8,0.4-0.8,0.8v1.6c0,0.2-0.2,0.4-0.4,0.4c-0.2,0-0.4-0.2-0.4-0.4v-3.2c0-0.4-0.4-0.8-0.8-0.8c-0.4,0-0.8,0.4-0.8,0.8
		c0,0.2-0.2,0.4-0.4,0.4c-0.2,0-0.4-0.2-0.4-0.4v-3.9c0-0.2-0.1-0.4-0.2-0.6c-0.2-0.2-0.5-0.3-0.8-0.2c-0.3,0.1-0.5,0.4-0.5,0.7
		c0,0.2-0.2,0.4-0.4,0.4c-0.2,0-0.4-0.2-0.4-0.4c0-2.2,0-5.2,0-5.2C2.8,9.6,12.7,2.8,24.8,2.8z"/>
	<path class="st0" d="M16.9,18.9c1.2,2.3,4.5,3.9,8.4,3.9c0.5,0,1,0,1.4-0.1c0.4-0.7,0.9-1.3,1.4-1.9c-0.9,0.2-1.8,0.3-2.8,0.3
		c-2.7,0-5.2-0.9-6.4-2.3c0,0,0,0,0.1,0c0.4-0.2,0.9-0.3,1.3-0.4c0.1,0,0.1,0,0.2-0.1c0.4-0.1,0.9-0.2,1.4-0.3c0.1,0,0.2,0,0.3,0
		c0.5-0.1,0.9-0.1,1.4-0.2c0.1,0,0.2,0,0.2,0c0.5,0,1-0.1,1.6-0.1c0.5,0,1,0,1.6,0.1c0.1,0,0.2,0,0.2,0c0.5,0,1,0.1,1.4,0.2
		c0.1,0,0.2,0,0.3,0c0.5,0.1,0.9,0.2,1.4,0.3c0.1,0,0.1,0,0.2,0.1c0.1,0,0.2,0.1,0.3,0.1c0.6-0.4,1.2-0.8,1.8-1.1c0,0,0,0,0,0
		c-0.5-0.2-1-0.4-1.5-0.5c-0.1,0-0.2,0-0.2-0.1c-0.5-0.1-1-0.2-1.5-0.3c-0.1,0-0.2,0-0.3-0.1c-0.5-0.1-1.1-0.2-1.6-0.2
		c-0.1,0-0.2,0-0.2,0c-0.6,0-1.2-0.1-1.7-0.1c-0.6,0-1.2,0-1.7,0.1c-0.1,0-0.2,0-0.2,0c-0.5,0.1-1.1,0.1-1.6,0.2
		c-0.1,0-0.2,0-0.3,0.1c-0.5,0.1-1,0.2-1.5,0.3c-0.1,0-0.2,0-0.2,0.1c-0.5,0.1-1,0.3-1.5,0.5c0,0,0,0,0,0c0-0.1,0-0.2,0-0.3
		c0-2.2,3.3-4,7.2-4c3.9,0,7.2,1.8,7.2,4c0,0.1,0,0.2,0,0.3c0.5-0.3,1-0.5,1.6-0.7c-0.3-2.9-4-5.2-8.8-5.2c-4.9,0-8.8,2.5-8.8,5.6
		C16.4,17.7,16.6,18.3,16.9,18.9C16.9,18.8,16.9,18.9,16.9,18.9z"/>
	<path class="st0" d="M25.2,13.2"/>
</g>
<g>
	<path class="st0" d="M67.5,29.7c-0.4,0-0.8,0.4-0.8,0.8v3.2c0,0.4,0.4,0.8,0.8,0.8c0.4,0,0.8-0.4,0.8-0.8v-3.2
		C68.3,30,68,29.7,67.5,29.7L67.5,29.7z M67.5,29.7"/>
	<path class="st0" d="M48.1,21.1c0.2,0.2,0.4,0.3,0.6,0.3c0.2,0,0.4-0.1,0.5-0.2c0.3-0.3,0.4-0.8,0.1-1.1l-1.7-1.9
		c-0.3-0.3-0.8-0.4-1.1-0.1c-0.3,0.3-0.4,0.8-0.1,1.1L48.1,21.1z M48.1,21.1"/>
	<path class="st0" d="M66.7,25.3l2.4,0.8c0.1,0,0.2,0,0.3,0c0.3,0,0.6-0.2,0.8-0.5c0.1-0.4-0.1-0.9-0.5-1l-2.4-0.8
		c-0.4-0.1-0.9,0.1-1,0.5C66,24.7,66.3,25.2,66.7,25.3L66.7,25.3z M66.7,25.3"/>
	<path class="st0" d="M58.3,35.2c-0.4,0-0.8,0.3-0.8,0.8l-0.1,1.1c0,0.4,0.3,0.8,0.8,0.8c0,0,0,0,0.1,0c0.4,0,0.8-0.3,0.8-0.8
		l0.1-1.1C59.1,35.6,58.7,35.2,58.3,35.2L58.3,35.2z"/>
	<path class="st0" d="M58.3,35.2"/>
	<path class="st0" d="M63.9,39.6c0.2,0.2,0.4,0.2,0.6,0.2c0.2,0,0.4-0.1,0.6-0.2c0.3-0.3,0.3-0.8,0-1.1l-0.8-0.8
		c-0.3-0.3-0.8-0.3-1.1,0c-0.3,0.3-0.3,0.8,0,1.1L63.9,39.6z M63.9,39.6"/>
	<path class="st0" d="M64.5,22.2C64.5,22.2,64.5,22.2,64.5,22.2c0.5,0,0.8-0.4,0.8-0.8l0-1.1c0-0.4-0.4-0.8-0.8-0.8
		c-0.4,0-0.8,0.4-0.8,0.8l0.1,1.1C63.7,21.8,64.1,22.2,64.5,22.2L64.5,22.2z M64.5,22.2"/>
	<path class="st0" d="M39.8,26.3c0.1,0,0.1,0,0.2,0c0.4-0.1,0.7-0.5,0.6-1l-0.8-3.2c-0.1-0.4-0.5-0.7-1-0.6c-0.4,0.1-0.7,0.5-0.6,1
		l0.8,3.2C39.1,26.1,39.4,26.3,39.8,26.3L39.8,26.3z"/>
	<path class="st0" d="M58.4,21.8c0.2,0.2,0.4,0.2,0.6,0.2s0.4-0.1,0.6-0.2c0.3-0.3,0.3-0.8,0-1.1l-0.8-0.8c-0.3-0.3-0.8-0.3-1.1,0
		c-0.3,0.3-0.3,0.8,0,1.1L58.4,21.8z M58.4,21.8"/>
	<path class="st0" d="M76.3,33v-0.6l0-1.9c0-0.1,0-0.2-0.1-0.3c0-0.1,0-0.2,0-0.3c0-0.1,0-0.3,0-0.4c0-0.1,0-0.3,0-0.4
		c0-0.1,0-0.3-0.1-0.4c0-0.1,0-0.3-0.1-0.4c0-0.1-0.1-0.3-0.1-0.4c0-0.1-0.1-0.3-0.1-0.4c0-0.1-0.1-0.3-0.1-0.4
		c0-0.1-0.1-0.3-0.1-0.4c0-0.1-0.1-0.3-0.1-0.4c-0.1-0.1-0.1-0.3-0.2-0.4c-0.1-0.1-0.1-0.3-0.2-0.4c-0.1-0.1-0.1-0.2-0.2-0.4
		c-0.1-0.1-0.1-0.3-0.2-0.4c-0.1-0.1-0.1-0.2-0.2-0.4c-0.1-0.1-0.1-0.3-0.2-0.4c-0.1-0.1-0.1-0.2-0.2-0.4c-0.1-0.1-0.2-0.3-0.3-0.4
		c-0.1-0.1-0.2-0.2-0.2-0.3c-0.1-0.1-0.2-0.2-0.3-0.4c-0.1-0.1-0.2-0.2-0.3-0.3c-0.1-0.1-0.2-0.2-0.3-0.4c-0.1-0.1-0.2-0.2-0.3-0.3
		c-0.1-0.1-0.2-0.2-0.3-0.4c-0.1-0.1-0.2-0.2-0.3-0.3c-0.1-0.1-0.2-0.2-0.4-0.3c-0.1-0.1-0.2-0.2-0.3-0.3c-0.1-0.1-0.2-0.2-0.4-0.3
		c-0.1-0.1-0.2-0.2-0.3-0.3c-0.1-0.1-0.3-0.2-0.4-0.3c-0.1-0.1-0.2-0.2-0.4-0.3c-0.1-0.1-0.3-0.2-0.4-0.3c-0.1-0.1-0.3-0.2-0.4-0.3
		c-0.1-0.1-0.3-0.2-0.4-0.3c-0.1-0.1-0.3-0.2-0.4-0.2c-0.2-0.1-0.3-0.2-0.5-0.3c-0.1-0.1-0.3-0.2-0.4-0.2c-0.2-0.1-0.3-0.2-0.5-0.3
		c-0.1-0.1-0.3-0.1-0.4-0.2c-0.2-0.1-0.3-0.2-0.5-0.2c-0.1-0.1-0.3-0.1-0.5-0.2c-0.2-0.1-0.3-0.1-0.5-0.2c-0.2-0.1-0.3-0.1-0.5-0.2
		c-0.2-0.1-0.3-0.1-0.5-0.2c-0.2-0.1-0.3-0.1-0.5-0.2c-0.2-0.1-0.3-0.1-0.5-0.2c-0.2-0.1-0.3-0.1-0.5-0.2c-0.2-0.1-0.3-0.1-0.5-0.2
		c-0.2-0.1-0.4-0.1-0.5-0.2c-0.2,0-0.3-0.1-0.5-0.1c-0.2,0-0.4-0.1-0.6-0.1c-0.2,0-0.4-0.1-0.5-0.1c-0.2,0-0.4-0.1-0.6-0.1
		c-0.2,0-0.3-0.1-0.5-0.1c-0.2,0-0.4-0.1-0.6-0.1c-0.2,0-0.3-0.1-0.5-0.1C57.2,14,57,14,56.8,14c-0.2,0-0.3,0-0.5-0.1
		c-0.2,0-0.5,0-0.7-0.1c-0.2,0-0.3,0-0.5,0c-0.3,0-0.6,0-0.8,0c-0.1,0-0.2,0-0.4,0c-0.4,0-0.8,0-1.2,0c-10.6,0-19.6,5-22.5,11.9
		c0.6,0,1.1,0.1,1.7,0.2c2.9-6.1,11.1-10.4,20.8-10.4c12.1,0,22,6.8,22,15.2c0,0.1,0,0.4,0,0.6c0,0.3,0,0.8,0,1.3v0.5
		c0,1.5-0.2,3.4-1,4.3c-0.3,0.3-0.6,0.5-1,0.5c-0.1,0-0.2-0.1-0.2-0.1c-0.1-0.1-0.1-0.2-0.1-0.3c0-0.4-0.4-0.8-0.8-0.8
		s-0.8,0.4-0.8,0.8v2.4c0,0.2-0.2,0.4-0.4,0.4c-0.2,0-0.4-0.2-0.4-0.4c0-0.4-0.4-0.8-0.8-0.8c-0.4,0-0.8,0.4-0.8,0.8v3.2
		c0,0.2-0.2,0.4-0.4,0.4c-0.2,0-0.4-0.2-0.4-0.4v-0.8c0-0.4-0.4-0.8-0.8-0.8c-0.4,0-0.8,0.4-0.8,0.8c0,0.2-0.2,0.4-0.4,0.4
		c-0.2,0-0.4-0.2-0.4-0.4c0-0.4-0.4-0.8-0.8-0.8c-0.4,0-0.8,0.4-0.8,0.8v4c0,0.2-0.2,0.4-0.4,0.4c-0.2,0-0.4-0.2-0.4-0.4v-2.8
		c0-0.4-0.4-0.8-0.8-0.8c-0.4,0-0.8,0.4-0.8,0.8c0,0.4-0.4,0.8-0.8,0.8c-0.4,0-0.8-0.4-0.8-0.8c0-0.4-0.4-0.8-0.8-0.8
		s-0.8,0.4-0.8,0.8v2.8c0,0.2-0.2,0.4-0.4,0.4c0,0,0,0,0,0c0,0.5-0.1,1.1-0.2,1.6c0.1,0,0.1,0,0.2,0c1.1,0,2-0.9,2-2v-0.5
		c0.5,0.2,1.1,0.2,1.6,0v0.5c0,1.1,0.9,2,2,2c1.1,0,2-0.9,2-2v-2c0.4,0.1,0.8,0,1.1-0.1c0.4,0.6,1,0.9,1.7,0.9c1.1,0,2-0.9,2-2v-1.2
		c0.1,0,0.3,0,0.4,0c1.1,0,2-0.9,2-2v-0.4c0.1,0,0.3,0,0.4,0c0.8,0,1.4-0.3,1.9-0.8c-0.5,6.9-7.8,12.6-17.3,14
		c0,0.6-0.1,1.1-0.2,1.7c10.9-1.5,19.2-8.3,19.2-16.5L76.3,33z"/>
	<path class="st0" d="M53.1,24.1c-4,0-7.4,1.7-8.4,4c0.5,0.1,1,0.3,1.5,0.6c0.9-1.7,3.7-2.9,6.9-2.9c3.9,0,7.2,1.8,7.2,4
		c0,0.1,0,0.2,0,0.3c0,0,0,0,0,0c-0.5-0.2-1-0.4-1.5-0.5c-0.1,0-0.2,0-0.2-0.1c-0.5-0.1-1-0.2-1.5-0.3c-0.1,0-0.2,0-0.3-0.1
		c-0.5-0.1-1.1-0.2-1.6-0.2c-0.1,0-0.2,0-0.2,0c-0.6,0-1.2-0.1-1.7-0.1c-0.6,0-1.2,0-1.7,0.1c-0.1,0-0.2,0-0.2,0
		c-0.5,0.1-1.1,0.1-1.6,0.2c-0.1,0-0.2,0-0.3,0.1c-0.5,0.1-1,0.2-1.5,0.3c0,0,0,0-0.1,0c0.5,0.4,1,0.8,1.5,1.2c0,0,0,0,0,0
		c0.1,0,0.3-0.1,0.4-0.1c0.1,0,0.2,0,0.3,0c0.5-0.1,0.9-0.1,1.4-0.2c0.1,0,0.2,0,0.2,0c0.5,0,1-0.1,1.6-0.1c0.5,0,1,0,1.6,0.1
		c0.1,0,0.2,0,0.2,0c0.5,0,1,0.1,1.4,0.2c0.1,0,0.2,0,0.3,0c0.5,0.1,0.9,0.2,1.4,0.3c0.1,0,0.1,0,0.2,0.1c0.5,0.1,0.9,0.3,1.3,0.4
		c0,0,0,0,0.1,0c-1.2,1.4-3.7,2.3-6.5,2.3c-0.4,0-0.9,0-1.3-0.1c0.4,0.5,0.8,1.1,1.2,1.7c0,0,0.1,0,0.1,0c3.9,0,7.2-1.6,8.4-3.9
		c0,0,0,0,0-0.1c0.3-0.6,0.4-1.1,0.4-1.7C61.9,26.6,58.1,24.1,53.1,24.1z"/>
	<path class="st0" d="M53.1,25.7"/>
</g>
</svg>
