<?xml version="1.0" encoding="utf-8"?>
<!-- Generator: Adobe Illustrator 21.1.0, SVG Export Plug-In . SVG Version: 6.00 Build 0)  -->
<svg version="1.1" id="Layer_1" xmlns="http://www.w3.org/2000/svg" xmlns:xlink="http://www.w3.org/1999/xlink" x="0px" y="0px"
	 viewBox="0 0 55.8 62.2" style="enable-background:new 0 0 55.8 62.2;" xml:space="preserve">
<g>
	<path d="M18.5,37.7c0,1.2-0.9,2.1-2.1,2.1c-1.2,0-2.1-0.9-2.1-2.1c0-1.2,0.9-2.1,2.1-2.1C17.6,35.6,18.5,36.5,18.5,37.7L18.5,37.7z
		 M18.5,37.7"/>
	<path d="M41.7,37.7c0,1.2-0.9,2.1-2.1,2.1c-1.2,0-2.1-0.9-2.1-2.1c0-1.2,0.9-2.1,2.1-2.1C40.8,35.6,41.7,36.5,41.7,37.7L41.7,37.7z
		 M41.7,37.7"/>
	<path d="M16.4,30.9c-1.1,0-2.2,0.4-3,1.3c-0.4,0.4-0.4,1.1,0,1.6c0.4,0.4,1.1,0.4,1.6,0c0.4-0.4,0.9-0.6,1.4-0.6
		c0.5,0,1.1,0.2,1.4,0.6c0.2,0.2,0.5,0.3,0.8,0.3c0.3,0,0.6-0.1,0.8-0.3c0.4-0.4,0.4-1.1,0-1.6C18.6,31.4,17.6,30.9,16.4,30.9
		L16.4,30.9z M16.4,30.9"/>
	<path d="M36.6,32.2c-0.4,0.4-0.4,1.1,0,1.6c0.4,0.4,1.1,0.4,1.6,0c0.8-0.8,2.1-0.8,2.9,0c0.2,0.2,0.5,0.3,0.8,0.3
		c0.3,0,0.6-0.1,0.8-0.3c0.4-0.4,0.4-1.1,0-1.6C41,30.5,38.2,30.5,36.6,32.2L36.6,32.2z M36.6,32.2"/>
	<g>
		<path d="M30.2,46.6c-0.6,0.6-1.3,0.9-2.2,0.9c-0.8,0-1.6-0.3-2.2-0.9c-0.4-0.4-1.1-0.4-1.6,0c-0.4,0.4-0.4,1.1,0,1.6
			c1,1,2.3,1.5,3.7,1.5c1.4,0,2.7-0.6,3.7-1.5c0.4-0.4,0.4-1.1,0-1.6C31.3,46.1,30.6,46.1,30.2,46.6L30.2,46.6z M30.2,46.6"/>
		<path d="M54.4,36.6c0-3-2.2-5.6-5.1-6.1V11.7c0-2.4-1.2-4.7-3.2-6c-1.9-1.3-4.3-1.5-6.4-0.8l-7-2.4c-5.4-1.8-11.1-2-16.4-0.5
			c-7,1.9-11,6-11.7,11.8c-0.5,0.7-1,1.5-1.3,2.4l-0.5,1.6c-0.3,0.9,0,1.8,0.8,2.3c0.8,0.5,1.7,0.4,2.4-0.2c0.2-0.2,0.5-0.4,0.7-0.6
			v11.2c-2.9,0.5-5.1,3.1-5.1,6.1c0,3.2,2.4,5.8,5.4,6.2C7.8,47,9.8,50.9,12.9,54c4,4.1,9.4,6.3,15.1,6.3h0c5.7,0,11.1-2.2,15.1-6.2
			C46.2,51,48.3,47,49,42.7C52.1,42.3,54.4,39.7,54.4,36.6L54.4,36.6z M44.9,7.6c1.4,0.9,2.2,2.5,2.2,4.2v14.7
			c-3.5-0.5-6.1-3.6-6.1-7.2L40.9,6.9C42.2,6.5,43.7,6.8,44.9,7.6L44.9,7.6z M5.2,17.6L5.4,17c0.6-1.7,1.8-3.1,3.5-3.8
			c1.6-0.7,3.5-0.7,5.1,0.1c3.4,1.6,7.5,0.7,10-2.1l0.3-0.3c0.4-0.5,0.4-1.2-0.1-1.6c-0.5-0.4-1.2-0.4-1.6,0.1l-0.3,0.3
			c-1.8,2.1-4.8,2.7-7.3,1.5c-2.2-1-4.7-1.1-6.9-0.1c-0.2,0.1-0.4,0.2-0.6,0.3c1.3-3.5,4.5-5.9,9.4-7.3C21.8,2.8,27,3,32,4.7
			l6.7,2.3l0.1,5.8c-3,4-7.3,6.8-12.2,7.7c-5.1,1-10.2-0.1-14.5-2.9C9.9,16.2,7.2,16.2,5.2,17.6L5.2,17.6z M3.8,36.6
			c0-1.8,1.2-3.3,2.9-3.8v6.1c0,0.5,0,1,0.1,1.6C5.1,39.9,3.8,38.4,3.8,36.6L3.8,36.6z M41.5,52.6c-3.6,3.6-8.4,5.6-13.5,5.6h0
			c-5.1,0-9.9-2-13.5-5.7c-3.6-3.7-5.6-8.5-5.6-13.6V18.8c0.6,0,1.3,0.3,1.8,0.6c4.8,3.1,10.5,4.3,16.2,3.2
			c4.6-0.9,8.7-3.1,11.8-6.4v3c0,4.9,3.7,8.9,8.4,9.4v10.4C47.1,44.2,45.1,49,41.5,52.6L41.5,52.6z M49.3,40.4c0-0.4,0-0.9,0-1.3
			v-6.3c1.6,0.5,2.9,2,2.9,3.8C52.2,38.4,51,39.9,49.3,40.4L49.3,40.4z M49.3,40.4"/>
	</g>
</g>
</svg>
