<?xml version="1.0" encoding="utf-8"?>
<!-- Generator: Adobe Illustrator 21.1.0, SVG Export Plug-In . SVG Version: 6.00 Build 0)  -->
<svg version="1.1" id="Layer_1" xmlns="http://www.w3.org/2000/svg" xmlns:xlink="http://www.w3.org/1999/xlink" x="0px" y="0px"
	 viewBox="0 0 45.3 57.8" style="enable-background:new 0 0 45.3 57.8;" xml:space="preserve">
<style type="text/css">
	.st0{clip-path:url(#SVGID_2_);}
</style>
<g>
	<path d="M26.1,15.6c-0.2-0.3-0.7-0.4-1-0.1L23.2,17c-0.3,0.2-0.4,0.7-0.1,1c0.1,0.1,0.2,0.2,0.3,0.2c0.2,0.1,0.5,0,0.7-0.1l1.9-1.4
		C26.3,16.4,26.4,16,26.1,15.6L26.1,15.6z M31.2,21.7c-0.2-0.4-0.6-0.5-1-0.3c-0.4,0.2-0.5,0.6-0.3,1l1.2,2.5
		c0.1,0.2,0.2,0.3,0.4,0.4c0.2,0.1,0.4,0.1,0.5,0c0.4-0.2,0.5-0.6,0.3-1L31.2,21.7z M27,21.5l-2.1,0c-0.4,0-0.7,0.3-0.7,0.7
		c0,0.3,0.2,0.6,0.5,0.7c0.1,0,0.1,0,0.2,0l2.1,0c0.4,0,0.7-0.3,0.7-0.7C27.7,21.8,27.4,21.5,27,21.5L27,21.5z M23.4,19.5l-1-1.1
		c-0.3-0.3-0.7-0.3-1,0c-0.3,0.3-0.3,0.7,0,1l1,1.1c0.1,0.1,0.2,0.1,0.3,0.2c0.2,0.1,0.5,0,0.7-0.2C23.6,20.3,23.6,19.8,23.4,19.5
		L23.4,19.5z M29.2,17.7c-0.1-0.4-0.4-0.7-0.8-0.6c-0.4,0.1-0.7,0.4-0.6,0.8l0.2,1.5c0,0.3,0.2,0.5,0.5,0.6c0.1,0,0.2,0,0.3,0
		c0.4-0.1,0.7-0.4,0.6-0.8L29.2,17.7z M29.2,17.7"/>
	<path d="M36.9,20.5c-0.7-2.4-2.6-5.7-7.8-7.4c-9.3-3.2-14,3.9-15,6.9c-0.8,2.5-0.3,4.8,1.3,5.4c0.2,0.1,0.5,0.2,0.9,0.2l-0.2,24.6
		c0,0.3,0.2,0.6,0.5,0.7c0.3,0.1,0.6,0,0.8-0.2l14.8-19.4c0.1,0,0.1,0,0.2,0.1c1.6,0.5,3.5-1,4.3-3.4C37.3,26,37.7,23.2,36.9,20.5
		L36.9,20.5z M31.1,30.3L17.6,48l0-5.6l0.6-0.3l-0.6-1.3l0,0l0-3.2l0,0l1.3-0.6l-0.6-1.3L17.6,36l0-6.4l0.7-0.3L17.7,28l0,0l0-2.8
		c0,0,0.1,0,0.1-0.1c0.1,0.2,0.1,0.3,0.2,0.5c0,0,0,0.1,0.1,0.1c0.1,0.1,0.2,0.3,0.3,0.4c0,0,0.1,0.1,0.1,0.1
		c0.1,0.1,0.3,0.2,0.4,0.3c0,0,0.1,0,0.1,0.1c0.2,0.1,0.4,0.2,0.6,0.3c0.2,0.1,0.4,0.1,0.6,0.1c0,0,0.1,0,0.1,0c0.1,0,0.3,0,0.5,0
		c0.1,0,0.1,0,0.2,0c0.2,0,0.3-0.1,0.5-0.1c0,0,0.1,0,0.1,0c0.2-0.1,0.3-0.1,0.5-0.2c0.1,0.2,0.1,0.3,0.2,0.5c0,0,0.1,0.1,0.1,0.1
		c0.1,0.1,0.2,0.3,0.3,0.4c0,0,0.1,0.1,0.1,0.1c0.1,0.1,0.2,0.2,0.4,0.3c0,0,0.1,0,0.1,0.1c0.1,0.1,0.3,0.1,0.4,0.2l-0.9,0.4
		l0.6,1.3l1.3-0.6l-0.4-0.9c0.1,0,0.1,0,0.2,0c0,0,0.1,0,0.1,0c0.1,0,0.3,0,0.5,0c0.1,0,0.1,0,0.2,0c0.2,0,0.3-0.1,0.5-0.1
		c0,0,0.1,0,0.1,0c0.2-0.1,0.3-0.1,0.5-0.2c0.1,0.2,0.1,0.3,0.2,0.5c0,0,0,0.1,0.1,0.1c0.1,0.1,0.2,0.3,0.3,0.4c0,0,0.1,0.1,0.1,0.1
		c0.1,0.1,0.2,0.2,0.4,0.3c0,0,0.1,0,0.1,0.1c0.2,0.1,0.4,0.2,0.6,0.3c0.2,0.1,0.4,0.1,0.6,0.1c0,0,0.1,0,0.1,0c0.1,0,0.3,0,0.5,0
		c0.1,0,0.1,0,0.2,0c0.2,0,0.3-0.1,0.5-0.1c0,0,0.1,0,0.1,0c0.2-0.1,0.3-0.1,0.5-0.2C30.7,29.8,30.9,30.1,31.1,30.3
		C31.1,30.3,31.1,30.3,31.1,30.3L31.1,30.3z M32.9,29.9c-0.1,0-0.2-0.1-0.4-0.2c0,0,0,0-0.1-0.1c-0.3-0.2-0.6-0.5-0.5-1.4
		c0,0,0,0,0-0.1c0-0.2,0.1-0.5,0.2-0.8c0.1-0.4-0.1-0.8-0.4-0.9c-0.4-0.1-0.8,0.1-0.9,0.4c-0.1,0.3-0.2,0.6-0.3,0.8c0,0,0,0,0,0
		c-0.5,0.8-1,1-1.8,0.7c-0.8-0.3-1.1-0.8-1-1.7c0,0,0,0,0-0.1c0-0.2,0.1-0.5,0.2-0.8c0.1-0.4-0.1-0.8-0.4-0.9
		c-0.4-0.1-0.8,0.1-0.9,0.4c-0.1,0.3-0.2,0.6-0.3,0.8c0,0,0,0,0,0c-0.5,0.8-1,1-1.8,0.7c-0.8-0.3-1.1-0.8-1-1.7c0,0,0,0,0-0.1
		c0-0.2,0.1-0.5,0.2-0.8c0.1-0.4-0.1-0.8-0.4-0.9c-0.4-0.1-0.8,0.1-0.9,0.4c-0.1,0.3-0.2,0.6-0.3,0.8c0,0,0,0,0,0
		c-0.5,0.8-1,1-1.8,0.7c-0.8-0.3-1.1-0.7-1-1.6c0,0,0,0,0,0c0-0.2,0.1-0.5,0.2-0.9c0.1-0.4-0.1-0.8-0.4-0.9
		c-0.4-0.1-0.8,0.1-0.9,0.4c-0.1,0.4-0.3,0.7-0.4,0.9c0,0,0,0,0,0c-0.2,0.3-0.5,0.6-0.7,0.7c0,0,0,0,0,0c-0.4,0.1-0.7,0-0.9-0.1
		c-0.7-0.2-1-1.8-0.4-3.5c0.9-2.6,5-8.9,13.2-6c9.9,3.4,6.9,12.5,6.7,12.9C34.8,29.1,33.6,30.1,32.9,29.9L32.9,29.9z M32.9,29.9"/>
	<path d="M27.9,32.5l-0.6-1.3l1.3-0.6l0.6,1.3L27.9,32.5z M25.4,30.6l0.6,1.3l-1.3,0.6l-0.6-1.3L25.4,30.6z M26,35.1l-0.6-1.3
		l1.3-0.6l0.6,1.3L26,35.1z M20.9,28l0.6,1.3l-1.3,0.6l-0.6-1.3L20.9,28z M22.8,31.9l-1.3,0.6l-0.6-1.3l1.3-0.6L22.8,31.9z
		 M24.1,34.4l-1.3,0.6l-0.6-1.3l1.3-0.6L24.1,34.4z M24,37.6l-0.6-1.3l1.3-0.6l0.6,1.3L24,37.6z M17.7,31.2l1.3-0.6l0.6,1.3
		l-1.3,0.6L17.7,31.2z M20.2,33.1l0.6,1.3L19.6,35l-0.6-1.3L20.2,33.1z M20.8,37.6l-0.6-1.3l1.3-0.6l0.6,1.3L20.8,37.6z M22.1,40.2
		l-0.6-1.3l1.3-0.6l0.6,1.3L22.1,40.2z M19.6,38.2l0.6,1.3l-1.3,0.6l-0.6-1.3L19.6,38.2z M20.2,42.7l-0.6-1.3l1.3-0.6l0.6,1.3
		L20.2,42.7z M18.2,45.3L17.6,44l1.3-0.6l0.6,1.3L18.2,45.3z M18.2,45.3"/>
</g>
<g>
	<g>
		<defs>
			<rect id="SVGID_1_" x="8.7" y="3.5" transform="matrix(0.9038 -0.428 0.428 0.9038 -9.2036 14.0582)" width="36" height="48"/>
		</defs>
		<clipPath id="SVGID_2_">
			<use xlink:href="#SVGID_1_"  style="overflow:visible;"/>
		</clipPath>
		<path class="st0" d="M43.6,23.1L33.3,1.4c-0.1-0.3-0.4-0.5-0.8-0.5c-0.4,0-9.7,0.7-14.3,6.8c-3.6,4.9-13.1,7-15.5,7.5l-0.8-1.7
			c-0.2-0.4-0.7-0.6-1.1-0.4c-0.4,0.2-0.6,0.7-0.4,1.1l1,2.2c0,0,0,0,0,0c0,0,0,0,0,0l12.3,26c0.3-0.3,0.6-0.5,1-0.7
			c0.1-0.1,0.1-0.2,0.2-0.2c0,0,0.1-0.1,0.1-0.1l-1.4-3c0.3-0.1,0.8-0.2,1.3-0.3c-0.3-0.5-0.5-1-0.7-1.5c-0.5,0.1-1,0.2-1.3,0.3
			L3.4,16.7c3.1-0.6,12.3-2.9,16.1-8C23.1,4,30.1,2.8,32.1,2.6l9.5,20.2c-0.6,0.1-1.3,0.2-2.1,0.4c0,0.3,0.1,0.6,0.1,0.9
			c0,0.3,0,0.5,0,0.8c1.9-0.4,3.3-0.6,3.3-0.6c0.3,0,0.5-0.2,0.6-0.4C43.7,23.6,43.7,23.3,43.6,23.1z"/>
		<path class="st0" d="M20,51.8c-0.5,0.2-1,0.4-1.5,0.5l1.8,3.8c0.2,0.4,0.7,0.6,1.1,0.4c0.4-0.2,0.6-0.7,0.4-1.1L20,51.8z"/>
		<path class="st0" d="M41.7,22.8"/>
	</g>
</g>
</svg>
