<?xml version="1.0" encoding="utf-8"?>
<!-- Generator: Adobe Illustrator 21.1.0, SVG Export Plug-In . SVG Version: 6.00 Build 0)  -->
<svg version="1.1" id="Layer_1" xmlns="http://www.w3.org/2000/svg" xmlns:xlink="http://www.w3.org/1999/xlink" x="0px" y="0px"
	 viewBox="0 0 45.3 45.3" style="enable-background:new 0 0 45.3 45.3;" xml:space="preserve">
<style type="text/css">
	.st0{clip-path:url(#SVGID_2_);}
	.st1{stroke:#000000;stroke-width:0.25;stroke-miterlimit:10;}
</style>
<g>
	<g>
		<defs>
			<rect id="SVGID_1_" x="5" y="3.3" width="36" height="39"/>
		</defs>
		<clipPath id="SVGID_2_">
			<use xlink:href="#SVGID_1_"  style="overflow:visible;"/>
		</clipPath>
		<path class="st0" d="M8.2,41.7c-0.2,0-0.3-0.1-0.5-0.2c-0.2-0.2-0.3-0.4-0.3-0.7L8,30.9c0-0.4,0.4-0.8,0.8-0.8
			c0.4,0,0.8,0.4,0.8,0.8l-0.5,8.7l8.2-2.9c0.4-0.1,0.9,0.1,1,0.5c0.1,0.4-0.1,0.9-0.5,1l-9.3,3.3C8.4,41.6,8.3,41.7,8.2,41.7
			L8.2,41.7z M8.2,41.7"/>
		<path class="st0" d="M23,39.2c-1.9,0-3.8-0.3-5.6-0.9l0.5-1.5c2.4,0.8,5,1,7.5,0.7c4.3-0.6,8.2-2.9,10.8-6.4
			c2.6-3.5,3.7-7.8,3.1-12.1C37.9,10,29.6,3.8,20.7,5.1c-4.3,0.6-8.2,2.9-10.8,6.4C7.3,15,6.2,19.3,6.8,23.6
			c0.4,2.5,1.3,4.8,2.7,6.9l-1.3,0.9c-1.5-2.3-2.5-4.8-2.9-7.5c-0.7-4.8,0.5-9.5,3.4-13.3c2.9-3.8,7.1-6.3,11.8-7
			c9.8-1.4,18.9,5.4,20.3,15.2c0.7,4.8-0.5,9.5-3.4,13.3c-2.9,3.8-7.1,6.3-11.8,7C24.7,39.2,23.8,39.2,23,39.2L23,39.2z M23,39.2"/>
	</g>
	<path class="st1" d="M19.3,18.3L19.3,18.3c-1.2,0-2-0.6-2.2-1.6c0-0.3,0.2-0.6,0.5-0.7c0.3-0.1,0.6,0.2,0.7,0.5
		c0.1,0.5,0.6,0.6,1,0.6h0c0.8,0,0.8-0.2,0.9-0.7c0-0.3,0.3-0.6,0.7-0.5c0.3,0,0.6,0.3,0.5,0.7C21.3,17.8,20.6,18.3,19.3,18.3
		L19.3,18.3z M19.3,18.3"/>
	<path class="st1" d="M22.3,27.2c-1.2,0-2.1-0.8-2.1-1.7c0-0.3,0.3-0.6,0.6-0.6c0.3,0,0.6,0.3,0.6,0.6c0,0.2,0.4,0.5,0.9,0.5
		c0.5,0,0.9-0.3,0.9-0.5c0-0.3,0.3-0.6,0.6-0.6c0.3,0,0.6,0.3,0.6,0.6C24.5,26.4,23.5,27.2,22.3,27.2L22.3,27.2z M22.3,27.2"/>
	<path class="st1" d="M23.8,26L23.8,26c-0.3,0-0.6-0.3-0.6-0.6c0-0.8,0-2.3,0.1-2.6c0.1-0.3,0.2-0.4,0.8-0.8
		c1.1-0.9,3.7-2.9,3.7-5.4c0-3.1-1.6-4.7-4.7-4.7c-1.7,0-3.1,0.5-3.9,1.3c-0.7,0.8-1,1.9-0.9,3.3c0,0.3-0.2,0.6-0.5,0.7
		c-0.3,0-0.6-0.2-0.7-0.5c-0.2-1.8,0.2-3.2,1.2-4.2c1-1.1,2.7-1.7,4.7-1.7c3.8,0,5.9,2.2,5.9,5.9c0,3.1-2.9,5.4-4.2,6.3
		c-0.1,0.1-0.3,0.2-0.3,0.3c0,0.4,0,1.4,0,2.2C24.4,25.8,24.2,26,23.8,26L23.8,26z M20.2,25.5c0,0,0-1.9,0-3.2
		c0-0.9,0.9-1.5,1.9-2.3c1.3-0.9,2.7-1.9,2.7-3.4c0-1.3-0.4-1.7-1.7-1.7c-1.1,0-1.6,0.3-1.7,1.8c0,0.3-0.3,0.6-0.6,0.6
		c-0.3,0-0.6-0.3-0.6-0.6c0.1-2,1-2.9,2.9-2.9c1.9,0,2.9,0.9,2.9,2.9c0,2.1-1.8,3.4-3.2,4.4c-0.6,0.4-1.4,1-1.4,1.3
		c0,1.2,0,3.1,0,3.1L20.2,25.5z M20.2,25.5"/>
	<path class="st1" d="M22.4,33.2c-1.2,0-2.2-1-2.2-2.2s1-2.2,2.2-2.2s2.2,1,2.2,2.2S23.6,33.2,22.4,33.2L22.4,33.2z M22.4,30
		c-0.6,0-1,0.4-1,1s0.4,1,1,1c0.6,0,1-0.4,1-1S22.9,30,22.4,30L22.4,30z M22.4,30"/>
</g>
</svg>
