<?xml version="1.0" encoding="utf-8"?>
<!-- Generator: Adobe Illustrator 21.1.0, SVG Export Plug-In . SVG Version: 6.00 Build 0)  -->
<svg version="1.1" id="Layer_1" xmlns="http://www.w3.org/2000/svg" xmlns:xlink="http://www.w3.org/1999/xlink" x="0px" y="0px"
	 viewBox="0 0 49.5 49.6" style="enable-background:new 0 0 49.5 49.6;" xml:space="preserve">
<g>
	<path d="M5.2,11c0.4-0.2,0.6-0.7,0.4-1.1C5.4,9.5,4.9,9.3,4.5,9.5c-0.6,0.3-1.1,0.6-1.5,1c-0.3,0.3-0.4,0.8-0.1,1.1
		c0.2,0.2,0.4,0.3,0.6,0.3c0.2,0,0.4-0.1,0.5-0.2C4.4,11.4,4.7,11.2,5.2,11L5.2,11z M5.2,11"/>
	<path d="M7.9,10.5h1.6c0.4,0,0.8-0.4,0.8-0.8c0-0.4-0.4-0.8-0.8-0.8H7.9c-0.4,0-0.8,0.4-0.8,0.8C7.1,10.2,7.5,10.5,7.9,10.5
		L7.9,10.5z M7.9,10.5"/>
	<path d="M12.8,10.5h1.6c0.4,0,0.8-0.4,0.8-0.8c0-0.4-0.4-0.8-0.8-0.8h-1.6c-0.4,0-0.8,0.4-0.8,0.8C11.9,10.2,12.3,10.5,12.8,10.5
		L12.8,10.5z M12.8,10.5"/>
	<path d="M9.6,20.1H7.9c-0.4,0-0.8,0.4-0.8,0.8c0,0.4,0.4,0.8,0.8,0.8h1.6c0.4,0,0.8-0.4,0.8-0.8C10.4,20.5,10,20.1,9.6,20.1
		L9.6,20.1z M9.6,20.1"/>
	<path d="M19.1,20.1h-1.6c-0.4,0-0.8,0.4-0.8,0.8c0,0.4,0.4,0.8,0.8,0.8h1.6c0.4,0,0.8-0.4,0.8-0.8C19.9,20.5,19.6,20.1,19.1,20.1
		L19.1,20.1z M19.1,20.1"/>
	<path d="M14.4,20.1h-1.6c-0.4,0-0.8,0.4-0.8,0.8c0,0.4,0.4,0.8,0.8,0.8h1.6c0.4,0,0.8-0.4,0.8-0.8C15.1,20.5,14.8,20.1,14.4,20.1
		L14.4,20.1z M14.4,20.1"/>
	<path d="M5.2,19.7C4.7,19.5,4.4,19.3,4,19c-0.3-0.3-0.8-0.3-1.1,0.1c-0.3,0.3-0.3,0.8,0.1,1.1c0.5,0.4,1,0.7,1.5,1
		c0.1,0.1,0.2,0.1,0.3,0.1c0.3,0,0.6-0.2,0.7-0.5C5.7,20.4,5.6,19.9,5.2,19.7L5.2,19.7z M5.2,19.7"/>
	<path d="M23.9,20.1h-1.6c-0.4,0-0.8,0.4-0.8,0.8c0,0.4,0.4,0.8,0.8,0.8h1.6c0.4,0,0.8-0.4,0.8-0.8C24.8,20.5,24.4,20.1,23.9,20.1
		L23.9,20.1z M23.9,20.1"/>
	<path d="M38.4,20.1h-1.6c-0.4,0-0.8,0.4-0.8,0.8c0,0.4,0.4,0.8,0.8,0.8h1.6c0.4,0,0.8-0.4,0.8-0.8C39.1,20.5,38.8,20.1,38.4,20.1
		L38.4,20.1z M38.4,20.1"/>
	<path d="M43.1,20.1h-1.6c-0.4,0-0.8,0.4-0.8,0.8c0,0.4,0.4,0.8,0.8,0.8h1.6c0.4,0,0.8-0.4,0.8-0.8C43.9,20.5,43.6,20.1,43.1,20.1
		L43.1,20.1z M43.1,20.1"/>
	<path d="M28.7,20.1h-1.6c-0.4,0-0.8,0.4-0.8,0.8c0,0.4,0.4,0.8,0.8,0.8h1.6c0.4,0,0.8-0.4,0.8-0.8C29.6,20.5,29.2,20.1,28.7,20.1
		L28.7,20.1z M28.7,20.1"/>
	<path d="M33.6,20.1h-1.6c-0.4,0-0.8,0.4-0.8,0.8c0,0.4,0.4,0.8,0.8,0.8h1.6c0.4,0,0.8-0.4,0.8-0.8C34.4,20.5,34,20.1,33.6,20.1
		L33.6,20.1z M33.6,20.1"/>
	<path d="M5.2,43.7C4.7,43.5,4.4,43.3,4,43c-0.3-0.3-0.8-0.3-1.1,0.1c-0.3,0.3-0.3,0.8,0.1,1.1c0.5,0.4,1,0.7,1.5,1
		c0.1,0.1,0.2,0.1,0.3,0.1c0.3,0,0.6-0.2,0.7-0.5C5.7,44.4,5.6,43.9,5.2,43.7L5.2,43.7z M5.2,43.7"/>
	<path d="M14.4,44.1h-1.6c-0.4,0-0.8,0.4-0.8,0.8c0,0.4,0.4,0.8,0.8,0.8h1.6c0.4,0,0.8-0.4,0.8-0.8C15.1,44.5,14.8,44.1,14.4,44.1
		L14.4,44.1z M14.4,44.1"/>
	<path d="M9.6,44.1H7.9c-0.4,0-0.8,0.4-0.8,0.8c0,0.4,0.4,0.8,0.8,0.8h1.6c0.4,0,0.8-0.4,0.8-0.8C10.4,44.5,10,44.1,9.6,44.1
		L9.6,44.1z M9.6,44.1"/>
	<path d="M28.7,44.1h-1.6c-0.4,0-0.8,0.4-0.8,0.8c0,0.4,0.4,0.8,0.8,0.8h1.6c0.4,0,0.8-0.4,0.8-0.8C29.6,44.5,29.2,44.1,28.7,44.1
		L28.7,44.1z M28.7,44.1"/>
	<path d="M31.1,44.9c0,0.4,0.4,0.8,0.8,0.8h1.6c0.4,0,0.8-0.4,0.8-0.8c0-0.4-0.4-0.8-0.8-0.8h-1.6C31.5,44.1,31.1,44.5,31.1,44.9
		L31.1,44.9z M31.1,44.9"/>
	<path d="M36.8,45.7h1.6c0.4,0,0.8-0.4,0.8-0.8c0-0.4-0.4-0.8-0.8-0.8h-1.6c-0.4,0-0.8,0.4-0.8,0.8C35.9,45.4,36.3,45.7,36.8,45.7
		L36.8,45.7z M36.8,45.7"/>
	<path d="M23.9,44.1h-1.6c-0.4,0-0.8,0.4-0.8,0.8c0,0.4,0.4,0.8,0.8,0.8h1.6c0.4,0,0.8-0.4,0.8-0.8C24.8,44.5,24.4,44.1,23.9,44.1
		L23.9,44.1z M23.9,44.1"/>
	<path d="M41.6,45.7h1.6c0.4,0,0.8-0.4,0.8-0.8c0-0.4-0.4-0.8-0.8-0.8h-1.6c-0.4,0-0.8,0.4-0.8,0.8C40.7,45.4,41.1,45.7,41.6,45.7
		L41.6,45.7z M41.6,45.7"/>
	<path d="M19.1,44.1h-1.6c-0.4,0-0.8,0.4-0.8,0.8c0,0.4,0.4,0.8,0.8,0.8h1.6c0.4,0,0.8-0.4,0.8-0.8C19.9,44.5,19.6,44.1,19.1,44.1
		L19.1,44.1z M19.1,44.1"/>
	<path d="M35.9,32.1c0,1.8,1.4,3.2,3.2,3.2c1.8,0,3.2-1.4,3.2-3.2c0-1.8-1.4-3.2-3.2-3.2C37.4,28.9,35.9,30.4,35.9,32.1L35.9,32.1z
		 M39.1,30.5c0.9,0,1.6,0.7,1.6,1.6c0,0.9-0.7,1.6-1.6,1.6c-0.9,0-1.6-0.7-1.6-1.6C37.6,31.3,38.3,30.5,39.1,30.5L39.1,30.5z
		 M39.1,30.5"/>
	<path d="M35.1,5.7l-4.4-4.3c-0.4-0.4-0.9-0.4-1.3,0L27.8,3l-1.6-1.6c-0.4-0.4-0.9-0.4-1.3,0l-4.3,4.3H7.1c-3.5,0-6.4,2.9-6.4,6.4
		v31.1c0,3.2,2.6,5.7,5.7,5.7h42.3V5.7H35.1z M30.1,3L44,16.9h-4.3l-9-9c-0.3-0.3-0.9-0.3-1.2,0l-9,9h-4.3L29,4.2L30.1,3z
		 M37.5,16.9H22.8l7.4-7.4L37.5,16.9z M25.6,3l1.1,1.1L13.9,16.9h-2.3L22.8,5.7L25.6,3z M7.1,7.3H19L17.3,9
		c-0.2,0.1-0.4,0.3-0.5,0.5l-7.4,7.4H7.1c-2.6,0-4.8-2.2-4.8-4.8C2.4,9.5,4.5,7.3,7.1,7.3L7.1,7.3z M47.1,36.1h-8.8
		c-2.2,0-4-1.8-4-4c0-2.2,1.8-4,4-4h8.8V36.1z M47.1,20.1h-0.8c-0.4,0-0.8,0.4-0.8,0.8c0,0.4,0.4,0.8,0.8,0.8h0.8v4.8h-8.8
		c-3.1,0-5.6,2.5-5.6,5.6c0,3.1,2.5,5.6,5.6,5.6h8.8v6.4h-0.8c-0.4,0-0.8,0.4-0.8,0.8c0,0.4,0.4,0.8,0.8,0.8h0.8v1.6H6.5
		c-2.3,0-4.1-1.8-4.1-4.1v-1.8c0.2-0.2,0.3-0.5,0.2-0.8c-0.1-0.4-0.2-0.9-0.2-1.4V17.5c0.2-0.2,0.3-0.5,0.2-0.8c0-0.1,0-0.1,0-0.2
		c0.1,0.1,0.1,0.1,0.2,0.2c0.1,0.1,0.1,0.1,0.2,0.2C3,17,3.1,17.1,3.2,17.2c0.1,0.1,0.2,0.1,0.2,0.2c0.1,0.1,0.2,0.1,0.3,0.2
		c0.1,0.1,0.2,0.1,0.2,0.1c0.1,0.1,0.2,0.1,0.3,0.2c0.1,0,0.2,0.1,0.3,0.1c0.1,0,0.2,0.1,0.3,0.1c0.1,0,0.2,0.1,0.3,0.1
		c0.1,0,0.3,0.1,0.4,0.1c0.1,0,0.2,0,0.3,0.1c0.1,0,0.3,0.1,0.4,0.1c0.1,0,0.1,0,0.2,0c0.2,0,0.4,0,0.7,0h40V20.1z M46.3,16.9
		l-6.4-6.4h0c0.4,0,0.8-0.4,0.8-0.8c0-0.4-0.4-0.8-0.8-0.8h-1.6c0,0,0,0,0,0l-1.6-1.6h10.4v9.6H46.3z M46.3,16.9"/>
	<path d="M44.8,8.9h-1.6c-0.4,0-0.8,0.4-0.8,0.8c0,0.4,0.4,0.8,0.8,0.8h1.6c0.4,0,0.8-0.4,0.8-0.8C45.6,9.3,45.2,8.9,44.8,8.9
		L44.8,8.9z M44.8,8.9"/>
</g>
</svg>
