<?xml version="1.0" encoding="utf-8"?>
<!-- Generator: Adobe Illustrator 21.1.0, SVG Export Plug-In . SVG Version: 6.00 Build 0)  -->
<svg version="1.1" id="Layer_1" xmlns="http://www.w3.org/2000/svg" xmlns:xlink="http://www.w3.org/1999/xlink" x="0px" y="0px"
	 viewBox="0 0 45.3 45.3" style="enable-background:new 0 0 45.3 45.3;" xml:space="preserve">
<g>
	<g>
		<path d="M39.9,26.3c-0.1-0.4-0.6-0.7-1-0.6l-5.6,1.5l-4-2.3l6.2-2.3c0.3-0.1,0.5-0.4,0.5-0.8c0-0.3-0.2-0.6-0.5-0.8l-6.2-2.2
			l4-2.3l5.6,1.5c0.1,0,0.1,0,0.2,0c0.4,0,0.7-0.2,0.8-0.6c0.1-0.4-0.1-0.9-0.6-1l-4-1.1l3.7-2.1c0.4-0.2,0.5-0.7,0.3-1.1
			c-0.2-0.4-0.7-0.5-1.1-0.3l-3.7,2.1l1.1-4c0.1-0.4-0.1-0.9-0.6-1c-0.4-0.1-0.9,0.1-1,0.6l-1.5,5.6l-4,2.3l1.2-6.6
			c0.1-0.3-0.1-0.7-0.4-0.8C29,10,28.6,10,28.4,10.3l-5.1,4.3V9.9l4.1-4.1c0.3-0.3,0.3-0.8,0-1.1c-0.3-0.3-0.8-0.3-1.1,0l-2.9,2.9
			V3.4c0-0.4-0.4-0.8-0.8-0.8c-0.4,0-0.8,0.4-0.8,0.8v4.2l-2.9-2.9c-0.3-0.3-0.8-0.3-1.1,0c-0.3,0.3-0.3,0.8,0,1.1l4.1,4.1v4.6
			l-5.1-4.3c-0.3-0.2-0.6-0.2-0.9-0.1c-0.3,0.2-0.4,0.5-0.4,0.8l1.2,6.6l-4-2.3L11,9.7c-0.1-0.4-0.6-0.7-1-0.6
			c-0.4,0.1-0.7,0.6-0.6,1l1.1,4l-3.7-2.1C6.5,11.9,6,12,5.8,12.4c-0.2,0.4-0.1,0.9,0.3,1.1l3.7,2.1l-4,1.1c-0.4,0.1-0.7,0.6-0.6,1
			C5.3,18,5.6,18.2,6,18.2c0.1,0,0.1,0,0.2,0l5.6-1.5l4,2.3l-6.2,2.3c-0.3,0.1-0.5,0.4-0.5,0.8c0,0.3,0.2,0.6,0.5,0.8l6.2,2.2
			l-4,2.3l-5.6-1.5c-0.4-0.1-0.9,0.1-1,0.6c-0.1,0.4,0.1,0.9,0.6,1l4,1.1l-3.7,2.1c-0.4,0.2-0.5,0.7-0.3,1.1C5.9,31.8,6.2,32,6.5,32
			c0.1,0,0.3,0,0.4-0.1l3.7-2.1l-1.1,4c-0.1,0.4,0.1,0.9,0.6,1c0.1,0,0.1,0,0.2,0c0.4,0,0.7-0.2,0.8-0.6l1.5-5.6l4-2.3l-1.2,6.6
			c-0.1,0.3,0.1,0.7,0.4,0.8c0.1,0.1,0.3,0.1,0.4,0.1c0.2,0,0.4-0.1,0.5-0.2l5.1-4.3v4.6L17.7,38c-0.3,0.3-0.3,0.8,0,1.1
			c0.2,0.2,0.4,0.2,0.6,0.2c0.2,0,0.4-0.1,0.6-0.2l2.9-2.9v4.2c0,0.4,0.4,0.8,0.8,0.8c0.4,0,0.8-0.4,0.8-0.8v-4.2l2.9,2.9
			c0.2,0.2,0.4,0.2,0.6,0.2c0.2,0,0.4-0.1,0.6-0.2c0.3-0.3,0.3-0.8,0-1.1l-4.1-4.1v-4.6l5.1,4.3c0.3,0.2,0.6,0.2,0.9,0.1
			c0.3-0.2,0.4-0.5,0.4-0.8l-1.2-6.6l4,2.3l1.5,5.6c0.1,0.4,0.4,0.6,0.8,0.6c0.1,0,0.1,0,0.2,0c0.4-0.1,0.7-0.6,0.6-1l-1.1-4
			l3.7,2.1c0.1,0.1,0.3,0.1,0.4,0.1c0.3,0,0.5-0.1,0.7-0.4c0.2-0.4,0.1-0.9-0.3-1.1l-3.7-2.1l4-1.1C39.8,27.1,40,26.7,39.9,26.3
			L39.9,26.3z M33,21.9l-5.4,2l-3.4-1.9l3.4-2L33,21.9z M27.7,12.9l-1,5.7l-3.4,1.9v-3.9L27.7,12.9z M17.3,12.9l4.4,3.7v3.9
			l-3.4-1.9L17.3,12.9z M12.1,22l5.4-2l3.4,1.9l-3.4,2L12.1,22z M17.3,31l1-5.7l3.4-1.9v3.9L17.3,31z M27.8,31l-4.4-3.7v-3.9
			l3.4,1.9L27.8,31z M27.8,31"/>
	</g>
</g>
</svg>
