<?xml version="1.0" encoding="utf-8"?>
<!-- Generator: Adobe Illustrator 21.1.0, SVG Export Plug-In . SVG Version: 6.00 Build 0)  -->
<svg version="1.1" id="Layer_1" xmlns="http://www.w3.org/2000/svg" xmlns:xlink="http://www.w3.org/1999/xlink" x="0px" y="0px"
	 viewBox="0 0 45.3 45.3" style="enable-background:new 0 0 45.3 45.3;" xml:space="preserve">
<style type="text/css">
	.st0{clip-path:url(#SVGID_2_);}
</style>
<g>
	<g>
		<defs>
			<rect id="SVGID_1_" x="2.2" y="0.6" width="42.1" height="43.6"/>
		</defs>
		<clipPath id="SVGID_2_">
			<use xlink:href="#SVGID_1_"  style="overflow:visible;"/>
		</clipPath>
		<path class="st0" d="M44.3,14.7c-0.2-3.8-2.8-7.3-7.3-9.9c-4.4-2.5-10.2-4-16.4-4.1c-0.3,0-0.5,0.1-0.7,0.3L2.4,24.5
			c-0.1,0.2-0.2,0.4-0.2,0.6v18.2c0,0.5,0.6,1,1.1,0.8L43.7,34c0.4-0.1,0.7-0.4,0.7-0.8L44.3,14.7z M21,2.4
			c5.7,0.2,11.1,1.5,15.1,3.9c3.7,2.1,6,4.9,6.4,7.8L5.4,23.5l-0.1,0L21,2.4z M42.6,32.5L4,42.2v-4.9l38.6-9.7V32.5z M42.6,25.8
			L4,35.5v-2.1l38.6-9.8V25.8z M42.6,21.9L4,31.6v-6l2-0.5l36.6-9.2V21.9z M42.6,21.9"/>
	</g>
	<path d="M29.5,7.9c1.6,0.5,3.1,1.2,4.5,1.9C34,10,34.2,10,34.3,10c0.3,0,0.6-0.2,0.8-0.4c0.2-0.4,0.1-0.9-0.3-1.2
		c-1.4-0.8-3-1.5-4.8-2.1c-0.5-0.1-0.9,0.1-1.1,0.6C28.8,7.3,29,7.8,29.5,7.9L29.5,7.9z M29.5,7.9"/>
	<path d="M22.3,6.6c1,0.1,2,0.2,3,0.4c0,0,0.1,0,0.1,0c0.4,0,0.8-0.3,0.9-0.7c0.1-0.5-0.2-0.9-0.7-1c-1-0.2-2.1-0.3-3.1-0.4
		c-0.5,0-0.9,0.3-0.9,0.8C21.4,6.1,21.8,6.6,22.3,6.6L22.3,6.6z M22.3,6.6"/>
	<path d="M28.1,23.6c0.1,0,0.1,0,0.2,0l3.1-0.8c0.5-0.1,0.7-0.6,0.6-1.1c-0.1-0.5-0.6-0.7-1.1-0.6l-3.1,0.8
		c-0.5,0.1-0.7,0.6-0.6,1.1C27.4,23.3,27.7,23.6,28.1,23.6L28.1,23.6z M28.1,23.6"/>
	<path d="M6.9,28.9c0.1,0,0.1,0,0.2,0l17.5-4.4c0.5-0.1,0.7-0.6,0.6-1.1c-0.1-0.5-0.6-0.7-1.1-0.6L6.7,27.2
		c-0.5,0.1-0.7,0.6-0.6,1.1C6.2,28.6,6.6,28.9,6.9,28.9L6.9,28.9z M6.9,28.9"/>
</g>
</svg>
