<?xml version="1.0" encoding="utf-8"?>
<!-- Generator: Adobe Illustrator 21.1.0, SVG Export Plug-In . SVG Version: 6.00 Build 0)  -->
<svg version="1.1" id="Layer_1" xmlns="http://www.w3.org/2000/svg" xmlns:xlink="http://www.w3.org/1999/xlink" x="0px" y="0px"
	 viewBox="0 0 50.2 49.8" style="enable-background:new 0 0 50.2 49.8;" xml:space="preserve">
<style type="text/css">
	.st0{stroke:#000000;stroke-width:0.7;stroke-miterlimit:10;}
	.st1{fill:none;stroke:#000000;stroke-width:1.8;stroke-linecap:round;stroke-miterlimit:10;}
</style>
<g>
	<g>
		<path class="st0" d="M30.8,25.9c0,0.7,0.6,1.4,1.4,1.3l2.8,0c0.4,0,0.7-0.1,1-0.4c0.3-0.3,0.4-0.6,0.4-1l0-11.8
			c0-0.2-0.2-0.4-0.4-0.4l-11.1,0c-0.7,0-1.4,0.6-1.4,1.4l0,2.8c0,0.7,0.6,1.4,1.4,1.4l2.2,0l-7.5,7.5l0-2.9c0-0.7-0.6-1.4-1.4-1.3
			h-2.8c-0.4,0-0.7,0.1-1,0.4c-0.3,0.3-0.4,0.6-0.4,1l0,11.8c0,0.1,0,0.2,0.1,0.3c0.1,0.1,0.2,0.1,0.3,0.1l11.1,0
			c0.7,0,1.4-0.6,1.4-1.4V32c0-0.7-0.6-1.4-1.4-1.4l-2.2,0l7.5-7.5L30.8,25.9z M21.8,31.2c0.1,0.2,0.2,0.3,0.4,0.3l3.2,0
			c0.3,0,0.5,0.2,0.5,0.5l0,2.8c0,0.3-0.2,0.5-0.5,0.5H14.8l0-11.3c0-0.1,0.1-0.3,0.1-0.3c0.1-0.1,0.2-0.1,0.3-0.1H18
			c0.1,0,0.3,0.1,0.3,0.1c0.1,0.1,0.1,0.2,0.1,0.3l0,3.9c0,0.2,0.1,0.3,0.3,0.4c0.2,0.1,0.3,0,0.5-0.1l9-9c0.1-0.1,0.2-0.3,0.1-0.5
			c-0.1-0.2-0.2-0.3-0.4-0.3l-3.2,0c-0.3,0-0.5-0.2-0.5-0.5l0-2.8c0-0.3,0.2-0.5,0.5-0.5l10.7,0l0,11.3c0,0.1-0.1,0.3-0.1,0.3
			c-0.1,0.1-0.2,0.1-0.3,0.1l-2.8,0c-0.3,0-0.5-0.2-0.5-0.5l0-3.9c0-0.2-0.1-0.3-0.3-0.4c-0.2-0.1-0.3,0-0.5,0.1l-9,9
			C21.8,30.9,21.7,31.1,21.8,31.2L21.8,31.2z M21.8,31.2"/>
	</g>
</g>
<path class="st1" d="M1.4,25.1c0-13,10.5-23.5,23.5-23.5c4.7,0,9.2,1.4,12.9,3.8"/>
<path class="st1" d="M17.7,47.5c-7.5-2.4-13.4-8.6-15.5-16.3"/>
<path class="st1" d="M5.9,30.9C4.6,23.1,7.3,15,13.1,9.6"/>
<path class="st1" d="M45.2,13.2c2.1,3.5,3.2,7.6,3.2,11.9c0,13-10.5,23.5-23.5,23.5"/>
</svg>
