<?xml version="1.0" encoding="utf-8"?>
<!-- Generator: Adobe Illustrator 21.1.0, SVG Export Plug-In . SVG Version: 6.00 Build 0)  -->
<svg version="1.1" id="Layer_1" xmlns="http://www.w3.org/2000/svg" xmlns:xlink="http://www.w3.org/1999/xlink" x="0px" y="0px"
	 viewBox="0 0 49.8 50.8" style="enable-background:new 0 0 49.8 50.8;" xml:space="preserve">
<style type="text/css">
	.st0{stroke:#000000;stroke-width:0.7;stroke-miterlimit:10;}
	.st1{fill:none;stroke:#000000;stroke-width:1.8;stroke-linecap:round;stroke-miterlimit:10;}
</style>
<g>
	<g>
		<path class="st0" d="M30.6,26c0,0.7,0.6,1.4,1.4,1.3l2.8,0c0.4,0,0.7-0.1,1-0.4c0.3-0.3,0.4-0.6,0.4-1l0-11.8
			c0-0.2-0.2-0.4-0.4-0.4l-11.1,0c-0.7,0-1.4,0.6-1.4,1.4l0,2.8c0,0.7,0.6,1.4,1.4,1.4l2.2,0l-7.5,7.5l0-2.9c0-0.7-0.6-1.4-1.4-1.3
			H15c-0.4,0-0.7,0.1-1,0.4c-0.3,0.3-0.4,0.6-0.4,1l0,11.8c0,0.1,0,0.2,0.1,0.3c0.1,0.1,0.2,0.1,0.3,0.1l11.1,0
			c0.7,0,1.4-0.6,1.4-1.4v-2.8c0-0.7-0.6-1.4-1.4-1.4l-2.2,0l7.5-7.5L30.6,26z M21.6,31.3c0.1,0.2,0.2,0.3,0.4,0.3l3.2,0
			c0.3,0,0.5,0.2,0.5,0.5l0,2.8c0,0.3-0.2,0.5-0.5,0.5l-10.7,0l0-11.3c0-0.1,0.1-0.3,0.1-0.3c0.1-0.1,0.2-0.1,0.3-0.1h2.8
			c0.1,0,0.3,0.1,0.3,0.1c0.1,0.1,0.1,0.2,0.1,0.3l0,3.9c0,0.2,0.1,0.3,0.3,0.4c0.2,0.1,0.3,0,0.5-0.1l9-9c0.1-0.1,0.2-0.3,0.1-0.5
			c-0.1-0.2-0.2-0.3-0.4-0.3l-3.2,0c-0.3,0-0.5-0.2-0.5-0.5l0-2.8c0-0.3,0.2-0.5,0.5-0.5l10.7,0l0,11.3c0,0.1-0.1,0.3-0.1,0.3
			c-0.1,0.1-0.2,0.1-0.3,0.1l-2.8,0c-0.3,0-0.5-0.2-0.5-0.5l0-3.9c0-0.2-0.1-0.3-0.3-0.4c-0.2-0.1-0.3,0-0.5,0.1l-9,9
			C21.5,31,21.5,31.2,21.6,31.3L21.6,31.3z M21.6,31.3"/>
	</g>
</g>
<path class="st1" d="M1.2,25.2c0-13,10.5-23.5,23.5-23.5c4.7,0,9.2,1.4,12.9,3.8"/>
<path class="st1" d="M17.4,47.6C9.9,45.2,4,39,2,31.3"/>
<path class="st1" d="M5.7,31C4.3,23.2,7,15.1,12.9,9.7"/>
<path class="st1" d="M44.9,13.3c2.1,3.5,3.2,7.6,3.2,11.9c0,13-10.5,23.5-23.5,23.5"/>
</svg>
